<?xml version="1.0" standalone="no"?>
<!DOCTYPE svg PUBLIC "-//W3C//DTD SVG 1.1//EN" "http://www.w3.org/Graphics/SVG/1.1/DTD/svg11.dtd" >
<svg xmlns="http://www.w3.org/2000/svg">
  <metadata>Created by iconfont</metadata>
  <defs>
  <font id="iconfont" horiz-adv-x="1024">
    <font-face
      font-family="iconfont"
      font-weight="400"
      font-stretch="normal"
      units-per-em="1024"
      ascent="896"
      descent="-128"
    />
      <missing-glyph />
      
      <glyph glyph-name="17cuowu" unicode="&#58899;" d="M596.722 384.001L924.94 712.219c23.299 23.299 23.299 61.422 0 84.721s-61.422 23.299-84.721 0L512.001 468.722 183.781 796.94c-23.299 23.299-61.422 23.299-84.721 0s-23.299-61.422 0-84.721l328.22-328.218-328.22-328.22c-23.299-23.299-23.299-61.422 0-84.721s61.422-23.299 84.721 0L512 299.279 840.219-28.94c23.299-23.299 61.422-23.299 84.721 0s23.299 61.422 0 84.721l-328.218 328.22z"  horiz-adv-x="1024" />
      
      <glyph glyph-name="duigou" unicode="&#59431;" d="M586.516432-111.173709c-23.076056 0-46.152113 8.653521-64.420657 25.479812l-485.558686 456.713615c-37.498592 35.575587-39.421596 94.707981-3.846009 132.687324 35.575587 37.498592 94.707981 39.421596 132.687324 3.84601l420.176526-395.177465L1348.026291 857.059155c37.01784 36.056338 96.630986 35.575587 132.687324-1.442254s35.575587-96.630986-1.442253-132.687324l-826.892019-807.661971c-18.749296-17.307042-42.306103-26.441315-65.862911-26.441315z"  horiz-adv-x="1514" />
      
      <glyph glyph-name="a-shezhi_fuzhi" unicode="&#59421;" d="M594.432 441.344c0 37.376 23.552 68.608 56.32 81.408-7.68 30.72-19.456 59.392-35.328 86.528-32.256-14.336-71.168-8.192-97.28 17.92s-32.256 65.024-17.92 97.28c-27.136 15.36-56.32 27.648-86.528 35.328-12.8-32.768-44.032-56.32-81.408-56.32S263.68 727.04 250.88 759.808c-30.72-7.68-59.392-19.456-86.528-35.328 14.336-32.256 8.192-71.168-17.92-97.28s-65.024-32.256-97.28-17.92c-15.872-26.624-27.648-55.808-35.328-86.528 32.768-12.8 56.32-44.032 56.32-81.408s-23.552-68.608-56.32-81.408c7.68-30.72 19.456-59.392 35.328-86.528 32.256 14.336 71.168 8.192 97.28-17.92s32.256-65.024 17.92-97.28c26.624-15.872 55.808-27.648 86.528-35.328 12.8 32.768 44.032 56.32 81.408 56.32 37.376 0 68.608-23.552 81.408-56.32 30.72 7.68 59.392 19.456 86.528 35.328-14.336 32.256-8.192 71.168 17.92 97.28s65.024 32.256 97.28 17.92c15.872 26.624 27.648 55.808 35.328 86.528-32.768 12.8-56.32 44.032-56.32 81.408z m-262.144-87.552c-48.128 0-87.552 39.424-87.552 87.552s39.424 87.552 87.552 87.552S419.84 489.472 419.84 441.344s-39.424-87.552-87.552-87.552z m359.424 370.176h318.464v-80.384h-318.464V723.968z m0-323.584h318.464v-80.384h-318.464V400.384zM175.616 77.312h834.56v-80.384h-834.56v80.384z"  horiz-adv-x="1024" />
      
      <glyph glyph-name="shiliangzhinengduixiang29_fuzhi" unicode="&#59422;" d="M867.150425 303.4003h-179.110445c-5.629185 8.69965-8.69965 18.422789-9.723138 29.169415-3.070465 37.357321 14.328836 66.526737 42.474762 110.536732 42.474763 55.268366 67.038481 122.306847 69.597202 191.904048 0 150.964518-118.212894 260.989505-281.459271 260.989505-163.246377-0.511744-281.971014-110.536732-281.971014-262.012994 2.558721-69.597201 27.122439-136.635682 69.597201-191.904047 28.657671-44.009995 46.056972-73.17941 42.986507-109.513244-1.023488-9.723138-4.093953-19.446277-9.211394-28.145927h-179.110445c-61.409295 0-110.536732-49.63918-110.536732-110.536732v-257.91904c0-26.610695 22.004998-48.615692 48.615692-48.615692h839.772114c26.610695 0 48.103948 20.981509 48.615692 47.592204v257.91904c0 61.409295-49.127436 110.536732-110.536731 110.536732z m12.793603-318.304848h-742.028986l-2.55872 209.815093v0.511744c0 7.164418 6.14093 13.305347 13.305347 12.793603h204.697651c14.328836 0 28.145927 6.14093 37.357322 17.3993 25.587206 28.657671 41.451274 64.47976 45.033483 102.348826 5.117441 71.644178-28.657671 124.353823-58.850575 170.410795-28.145927 42.474763-53.733133 81.87906-53.733133 138.170914 0 97.743128 74.202899 163.758121 184.227886 163.758121s184.227886-66.014993 184.227886-163.758121c0-56.291854-26.098951-96.207896-53.733134-138.170914-30.192904-46.568716-63.968016-98.766617-58.850574-170.410795 3.582209-37.869065 19.446277-73.691154 45.033483-102.348826 9.211394-11.258371 22.516742-17.3993 37.357321-17.3993h205.209396c7.164418 0 13.305347-6.14093 13.305347-13.305347v-209.815093z"  horiz-adv-x="1024" />
      
      <glyph glyph-name="shiliangzhinengduixiang30_fuzhi" unicode="&#59423;" d="M562.688 287.744H256c-17.92 0-32.256 14.336-32.256 32.256V671.744c0 17.92 14.336 32.256 32.256 32.256h288.256c17.92 0 32.256-14.336 32.256-32.256v-96.256H768c17.92 0 32.256-14.336 32.256-32.256v-448c0-17.92-14.336-32.256-32.256-32.256H416.256c-17.92 0-32.256 14.336-32.256 32.256v96.256c0 17.92 14.336 32.256 32.256 32.256s32.256-14.336 32.256-32.256V128h288.256V512H448v-64c0-17.92-14.336-32.256-32.256-32.256S384 430.08 384 448V543.744c0 17.92 14.336 32.256 32.256 32.256H512V640H288.256v-288.256h274.432l-41.472 41.472c-11.264 13.312-9.728 33.792 3.584 45.056 11.776 10.24 29.696 10.24 41.472 0l92.672-92.672c14.336-10.752 16.896-30.72 6.656-44.544-1.536-2.048-3.072-3.584-5.12-5.12l-94.208-94.208c-12.8-12.288-32.768-12.288-45.056 0-12.288 12.8-12.288 32.768 0 45.056l41.472 40.96z"  horiz-adv-x="1024" />
      
      <glyph glyph-name="shiliangzhinengduixiang32_fuzhi" unicode="&#59424;" d="M984.584432 501.331966h-315.324915c-22.011317 0-39.927505 17.916188-39.927505 39.927505s17.916188 39.927505 39.927505 39.927505h228.303429C789.553925 792.597999 530.02514 877.060029 318.102226 769.051008S21.717282 401.001311 129.726303 189.078398s367.537806-296.384944 579.972611-188.375923c119.270625 60.91504 203.732656 173.531081 227.791537 305.598983 0 22.011317 17.916188 39.927505 39.927506 39.927506s39.927505-17.916188 39.927505-39.927506c0-4.095129-1.023782-8.190258-2.559455-11.773495h1.023782c-49.141545-278.468756-314.813024-463.773332-593.281779-414.631787-278.468756 49.141545-463.773332 314.813024-414.631788 593.281779S322.709246 936.951288 601.178002 887.809742c141.793833-25.082664 266.183369-108.520912 342.967033-230.350992V856.072495c0 22.011317 17.916188 39.927505 39.927506 39.927505s39.927505-17.916188 39.927505-39.927505v-313.789242c0-22.011317-17.404297-40.439397-39.415614-40.951287z"  horiz-adv-x="1027" />
      
      <glyph glyph-name="a-weixiu1_fuzhi" unicode="&#59425;" d="M872.448 164.352l-214.016 211.456c13.312 31.744 19.968 66.56 19.968 102.912C678.4 629.76 553.984 752.64 400.384 752.64c-48.128 0-93.696-12.288-133.12-33.28l158.72-156.672c10.24-10.24 10.752-27.136 0.512-37.376l-0.512-0.512-72.704-71.68c-10.752-10.24-27.648-10.24-38.4 0L156.672 609.792C134.656 569.344 122.88 524.288 122.88 478.208c0-151.552 124.416-273.92 278.016-273.92 42.496 0 82.944 9.216 118.784 26.112l209.92-207.36c38.4-37.888 101.376-37.888 139.776 0l3.072 3.072c37.888 37.888 38.4 98.816 0.512 137.216 0 0.512-0.512 0.512-0.512 1.024z"  horiz-adv-x="1024" />
      
      <glyph glyph-name="shiliangzhinengduixiang33_fuzhi" unicode="&#59426;" d="M568.32 384l291.84 291.84c15.36 15.36 15.36 38.4 0 53.76l-2.56 2.56c-15.36 15.36-38.4 15.36-53.76 0l-291.84-294.4L220.16 732.16c-15.36 12.8-38.4 12.8-53.76 0l-2.56-2.56c-12.8-15.36-12.8-38.4 0-53.76l291.84-291.84-291.84-291.84c-15.36-15.36-15.36-38.4 0-53.76l2.56-2.56c15.36-15.36 38.4-15.36 53.76 0l291.84 291.84 291.84-291.84c15.36-15.36 38.4-15.36 53.76 0l2.56 2.56c15.36 15.36 15.36 38.4 0 53.76l-291.84 291.84z"  horiz-adv-x="1024" />
      
      <glyph glyph-name="shiliangzhinengduixiang28_fuzhi" unicode="&#59427;" d="M969.728 734.208c1.024 3.072 1.536 5.632 2.048 8.704 1.536 8.704-2.56 17.408-10.24 23.552l-0.512 0.512h-0.512c-2.048 1.536-4.608 3.072-7.168 4.096-2.048 1.024-4.096 1.536-6.144 2.048-11.264 2.56-22.528-0.512-29.184-6.656L100.864 364.032c-14.336-7.168-21.504-21.504-18.944-34.816-5.12-16.384 3.072-34.304 19.456-39.936l240.64-87.04c16.384-6.144 34.816 2.56 40.96 18.944 6.144 16.384-2.56 34.816-18.944 40.96l-190.464 69.12 632.32 311.808-390.144-425.984c-8.192-3.072-13.312-8.192-13.312-13.824v-138.752c0-9.728 14.336-17.408 31.744-17.408 17.408 0 31.744 7.68 31.744 17.408v117.248L885.248 640l-118.272-519.168-208.896 75.776c-16.384 6.144-34.816-2.56-40.96-18.944s2.56-34.816 18.944-40.96l240.64-87.04c16.384-6.144 34.816 2.56 40.96 18.944 0.512 1.024 0.512 2.048 1.024 3.584 0 0.512 0 0.512 0.512 1.024l150.528 660.992z"  horiz-adv-x="1159" />
      
      <glyph glyph-name="shiliangzhinengduixiang31_fuzhi" unicode="&#59428;" d="M435.2 191.488c-8.192 0-16.384 3.072-23.04 9.728l-119.296 122.368c-12.288 12.8-12.288 32.768 0.512 45.056 12.8 12.288 32.768 12.288 45.056-0.512L435.2 268.8l193.536 188.416c12.8 12.288 32.768 12.288 45.056-0.512 12.288-12.8 12.288-32.768-0.512-45.056l-216.064-210.944c-6.144-6.144-14.336-9.216-22.016-9.216z"  horiz-adv-x="1024" />
      
      <glyph glyph-name="shiliangzhinengduixiang34_fuzhi" unicode="&#59429;" d="M956.416-18.432l-99.328 235.52c137.216 91.136 195.584 270.336 129.024 428.032C911.36 823.296 705.536 907.264 527.36 832.512 348.16 757.76 264.192 551.936 338.944 372.736c67.584-160.768 240.64-244.736 405.504-204.8l98.304-234.496c13.312-31.744 49.152-46.08 80.896-32.768 31.744 13.312 46.08 49.152 32.768 80.896z m-203.776 312.32c-117.76-49.152-252.928 6.144-302.08 123.904s6.144 252.928 123.904 302.08 252.928-6.144 302.08-123.904c49.152-117.76-6.144-251.904-123.904-302.08zM10.24 238.592c0 40.96 33.792 74.752 74.752 74.752h143.36c40.96 0 74.752-33.792 74.752-74.752S269.312 163.84 228.352 163.84h-143.36c-40.96 0-74.752 33.792-74.752 74.752zM10.24 506.88c0 40.96 33.792 74.752 74.752 74.752h81.92c40.96 0 74.752-33.792 74.752-74.752s-33.792-74.752-74.752-74.752h-81.92C44.032 432.128 10.24 465.92 10.24 506.88z m0-536.576c0 40.96 33.792 74.752 74.752 74.752H496.64c40.96 0 74.752-33.792 74.752-74.752S537.6-104.448 496.64-104.448H84.992c-40.96 0-74.752 33.792-74.752 74.752z"  horiz-adv-x="1024" />
      
      <glyph glyph-name="shiliangzhinengduixiang35_fuzhi" unicode="&#59430;" d="M777.216 348.672c-18.432 11.776-39.936 18.432-62.976 18.432h-45.056c-13.824 0-26.112 9.216-30.208 22.528l-26.624 82.944c-3.072 9.728-1.536 19.968 4.608 28.672 25.088 34.816 38.912 76.288 38.912 119.296 1.024 113.152-90.112 207.872-202.752 210.944-56.32 2.048-111.616-19.456-151.552-58.88-40.96-39.936-63.488-92.672-63.488-150.016 0-43.52 13.824-86.016 39.424-121.344 6.144-8.704 8.192-19.456 4.608-28.672L256 389.632c-4.096-13.312-16.384-22.528-30.208-22.528h-45.056c-64.512 0-116.736-52.736-116.736-116.736v-135.168c0-64.512 52.224-116.224 116.736-116.224h420.352c-16.896 32.768-26.112 70.144-26.112 109.568 0 120.32 87.04 220.16 202.24 240.128zM952.832 135.168l-55.808 97.792c-8.704 14.848-24.576 24.576-41.472 24.576h-111.104c-17.408 0-33.28-9.216-41.472-24.576l-55.808-97.792a49.2032 49.2032 0 0 1 0-47.616l55.808-97.792c8.704-14.848 24.576-24.576 41.472-24.576h111.104c17.408 0 32.768 9.216 41.472 24.576l55.808 97.792c8.192 15.36 8.192 33.28 0 47.616z m-153.088-88.576c-36.352 0-65.536 29.696-65.536 65.536s29.696 65.536 65.536 65.536 65.536-29.696 65.536-65.536-29.184-65.536-65.536-65.536z"  horiz-adv-x="1024" />
      
      <glyph glyph-name="quyu" unicode="&#59420;" d="M291.190225 559.880033h-170.619272a24.455429 24.455429 0 0 1-24.171064-20.474312l-38.673702-210.430436 389.865038-48.910858c-65.404054 83.319078-134.50486 189.103027-156.401 279.815606zM764.37434 240.253263l92.703138-11.658984-11.090252 60.285477-8.530964 46.351569c-24.171064-34.40822-49.479589-66.541516-73.081922-94.978062zM720.01333 188.49875c-14.218273-15.924465-26.730353-28.436545-36.114413-39.526798l-20.474313-21.611774-41.232991-43.79228L580.674257 127.928909l-20.758678 21.611774c-14.218273 15.071369-35.545682 38.389336-60.285476 67.110247l-219.245765 28.436546L352.328798-14.253818h519.535684a25.02416 25.02416 0 0 1 24.171064 28.436545l-28.436546 154.694807zM220.098861 251.343516l-172.60983 21.611774L0.284365 14.182727a25.02416 25.02416 0 0 1 24.739795-28.436545h268.725354l-73.081922 260.478756a31.2802 31.2802 0 0 0-0.568731 5.118578zM622.191613 506.134963a113.746182 113.746182 0 1 1-113.746181 113.746181 113.746182 113.746182 0 0 1 113.746181-113.746181z m0 170.619272a56.873091 56.873091 0 1 0-56.87309-56.873091 56.873091 56.873091 0 0 0 56.87309 56.873091zM622.191613 166.318245l20.758679 21.89614c26.730353 28.436545 260.478756 279.531241 260.478755 426.548181a281.237434 281.237434 0 0 1-562.474868 0c0-146.732574 234.032769-398.111636 260.763122-426.548181z m0 672.524299a224.648709 224.648709 0 0 0 224.364344-224.364344c0-95.831158-146.732574-278.39378-224.364344-364.840877-77.631769 85.309636-224.364343 269.00972-224.364343 364.840877A224.648709 224.648709 0 0 0 622.191613 838.842544z"  horiz-adv-x="1152" />
      
      <glyph glyph-name="shenhe1" unicode="&#59419;" d="M335.872-12.288h-163.84c-31.232 0-56.832 25.6-56.832 56.832V723.968c0 31.232 25.6 56.832 56.832 56.832h621.056c31.232 0 56.832-25.6 56.832-56.832v-84.48c0-23.04 18.944-41.984 41.984-41.984s41.984 18.944 41.984 41.984V723.968c0 77.312-62.976 140.8-140.8 140.8H172.032C94.72 864.256 31.744 801.28 31.744 723.968v-679.424c0-77.312 62.976-140.8 140.8-140.8h163.328c23.04 0 41.984 18.944 41.984 41.984s-18.944 41.984-41.984 41.984zM967.168-29.696l-114.176 114.176c18.432 23.552 33.792 49.152 45.568 76.8 17.408 40.96 26.112 84.992 26.112 129.536 0 45.056-8.704 88.576-26.112 129.536-16.896 39.936-40.96 75.264-71.68 105.984s-66.048 54.784-105.984 71.68c-40.96 17.408-84.992 26.112-129.536 26.112-45.056 0-88.576-8.704-129.536-26.112-39.936-16.896-75.264-40.96-105.984-71.68s-54.784-66.048-71.68-105.984c-17.408-40.96-26.112-84.992-26.112-129.536 0-45.056 8.704-88.576 26.112-129.536 16.896-39.936 40.96-75.264 71.68-105.984s66.048-54.784 105.984-71.68c40.96-17.408 84.992-26.112 129.536-26.112 45.056 0 88.576 8.704 129.536 26.112 28.16 11.776 53.76 27.136 77.312 46.08l114.176-114.176c7.168-7.168 16.896-11.264 27.136-11.264s19.968 4.096 27.136 11.264c15.36 15.36 15.36 39.936 0.512 54.784z m-375.808 64.512c-141.312 0-256 114.688-256 256s114.688 256 256 256 256-114.688 256-256-114.688-256-256-256z"  horiz-adv-x="1024" />
      
      <glyph glyph-name="xiaoxi2" unicode="&#59418;" d="M815.8 739.1H208.2c-61 0-110.5-49.5-110.5-110.6v-361.8c0-60.9 49.5-110.4 110.5-110.4h311s128.7-104.7 146.1-118.4c17.5-13.6 24.5-10.5 24.3 0-0.2 10.5-0.1 118.4-0.1 118.4h126.3c61.1 0 110.5 49.5 110.5 110.4V628.6c0 61-49.4 110.5-110.5 110.5zM334.4 384c-32.7 0-59.2 26.4-59.2 59.2 0 32.8 26.5 59.2 59.2 59.2s59.2-26.4 59.2-59.2c0-32.8-26.5-59.2-59.2-59.2z m177.6 0c-32.7 0-59.2 26.4-59.2 59.2 0 32.8 26.5 59.2 59.2 59.2s59.2-26.4 59.2-59.2c0-32.8-26.5-59.2-59.2-59.2z m177.6 0c-32.7 0-59.2 26.4-59.2 59.2 0 32.8 26.5 59.2 59.2 59.2s59.2-26.4 59.2-59.2c-0.1-32.8-26.6-59.2-59.2-59.2z"  horiz-adv-x="1024" />
      
      <glyph glyph-name="didian9" unicode="&#59410;" d="M794.7 718C638.8 871 385.9 871 230 718 74 564.9 74 316.7 230 163.6l282.4-226.8 282.4 226.8c155.9 153.1 155.9 401.3-0.1 554.4zM512.4 272.8c-94.5 0-171.1 75.2-171.1 168s76.6 168 171.1 168 171.1-75.2 171.1-168-76.6-168-171.1-168z"  horiz-adv-x="1024" />
      
      <glyph glyph-name="bianji3" unicode="&#59411;" d="M949.76-102.4h-875.52c-26.624 0-48.64 21.504-48.64 48.64v875.52C25.6 848.896 47.104 870.4 74.24 870.4h473.088c26.624 0 48.64-21.504 48.64-48.64 0-26.624-21.504-48.64-48.128-48.64H122.88v-778.24h778.24V405.504c0 26.624 21.504 48.64 48.64 48.64 26.624 0 48.64-21.504 48.64-48.64v-459.264c0-27.136-21.504-48.64-48.64-48.64zM390.656 214.016c-12.8 0-25.088 5.12-34.304 14.336-18.944 18.944-18.944 49.664 0 68.608L903.68 844.8a48.51712 48.51712 0 0 0 68.608-68.608L424.96 228.352c-9.216-9.216-21.504-14.336-34.304-14.336z"  horiz-adv-x="1024" />
      
      <glyph glyph-name="saoma" unicode="&#59412;" d="M879.3 497.7c-24.6 0-44.6 20-44.6 44.6V671.8c0 19.7-16 35.7-35.7 35.7H665.4c-24.6 0-44.6 20-44.6 44.6s20 44.6 44.6 44.6h133.7c68.8 0 124.9-56 124.9-124.9v-129.5c-0.1-24.6-20.1-44.6-44.7-44.6z m-736 0c-24.6 0-44.6 20-44.6 44.6V671.8c0 68.8 56 124.9 124.9 124.9h135.7c24.6 0 44.6-20 44.6-44.6s-20-44.6-44.6-44.6H223.6c-19.7 0-35.7-16-35.7-35.7v-129.5c0.1-24.6-19.9-44.6-44.6-44.6z m216-527.7H223.6c-68.8 0-124.9 56-124.9 124.9V239.2c0 24.6 20 44.6 44.6 44.6s44.6-20 44.6-44.6v-144.4c0-19.7 16-35.7 35.7-35.7h135.7c24.6 0 44.6-20 44.6-44.6s-20-44.5-44.6-44.5z m439.8 0H665.4c-24.6 0-44.6 20-44.6 44.6s20 44.6 44.6 44.6h133.7c19.7 0 35.7 16 35.7 35.7V240.7c0 24.6 20 44.6 44.6 44.6s44.6-20 44.6-44.6v-145.9C923.9 26 867.9-30 799.1-30z m80.2 378.6h-736c-24.6 0-44.6 20-44.6 44.6s20 44.6 44.6 44.6h736c24.6 0 44.6-20 44.6-44.6s-20-44.6-44.6-44.6z"  horiz-adv-x="1024" />
      
      <glyph glyph-name="gongsi" unicode="&#59413;" d="M128 31.744v640l512 128V614.4l256-102.4v-480.256H128z m448 686.08l-384-96.256v-525.824h384V717.824zM640 545.28v-449.536h192V468.48l-192 76.8z m128-225.28v-96.256h-64v96.256H768z m-287.744-32.256v-64H288.256v64h192z m0 192v-64H288.256V479.744h192z"  horiz-adv-x="1024" />
      
      <glyph glyph-name="shijianshaixuan" unicode="&#59414;" d="M512.512 832c-246.784 0-448-201.216-448-448s201.216-448 448-448c247.296 0 448 201.216 448 448s-200.704 448-448 448z m0-806.4c-197.632 0-358.4 160.768-358.4 358.4s160.768 358.4 358.4 358.4 358.4-160.768 358.4-358.4-160.768-358.4-358.4-358.4zM699.904 408.576h-142.848l-1.536 233.472c0 24.576-19.968 44.544-45.056 44.544h-0.512c-24.576 0-44.544-20.48-44.544-45.056l2.048-278.016c0-24.576 19.968-44.544 45.056-44.544h187.392c24.576 0 45.056 19.968 45.056 45.056s-20.48 44.544-45.056 44.544z"  horiz-adv-x="1024" />
      
      <glyph glyph-name="gongwei" unicode="&#59415;" d="M923.136 35.84c-16.384 0-29.184 13.312-29.184 29.184v74.752h-276.48c-16.384 0-29.184 13.312-29.184 29.184V457.728H144.896v-392.704c0.512-16.384-12.8-29.696-28.672-29.696s-29.696 12.8-29.696 28.672V613.376H29.184c-16.384 0-29.184 13.312-29.184 29.184v148.48c0 16.384 13.312 29.184 29.184 29.184h965.12c16.384 0 29.184-13.312 29.184-29.184v-148.48c0-16.384-13.312-29.184-29.184-29.184H952.32v-443.904c0-2.048 0-3.584-0.512-5.12v-99.328c0.512-16.384-12.8-29.184-28.672-29.184z m-276.48 262.144v-98.816h246.784v98.816h-246.784z m0 157.696v-98.816h246.784V455.68h-246.784z m0 157.696v-98.816h246.784V613.376h-246.784z m-501.76 0v-97.28h442.88v97.28H144.896z m-86.016 148.48v-89.6h906.752V761.856H58.88z"  horiz-adv-x="1024" />
      
      <glyph glyph-name="didianshaixuan1" unicode="&#59416;" d="M647.168 310.784c1.024 25.6 2.56 39.424 6.144 53.76 4.608 20.992 11.776 38.912 23.04 57.344 10.752 18.432 22.528 33.28 59.904 72.704l192 202.752c20.48 21.504 19.456 55.808-2.048 76.288-10.24 9.728-23.04 14.848-36.864 14.848H188.416c-29.696 0-53.76-24.064-53.76-53.76 0-13.824 5.12-27.136 14.848-37.376l192.512-202.752c37.376-39.424 49.152-54.272 59.904-72.704 10.752-18.432 18.432-36.864 23.04-57.344 4.608-20.992 6.656-39.424 6.656-93.696v-344.576c0-29.696-24.064-53.76-53.76-53.76s-53.76 24.064-53.76 53.76v366.592c0 27.136-1.024 36.352-3.072 47.104-2.048 10.24-6.144 19.968-11.264 28.672-5.632 9.216-11.264 16.384-29.696 36.352L68.096 626.688C7.68 690.688 10.24 791.552 74.24 852.48 103.936 880.128 143.36 896 183.808 896h709.632c88.064 0 159.744-71.68 159.744-159.744 0-40.96-15.872-79.872-43.52-109.568L799.232 404.48c-18.432-19.968-24.576-27.136-29.696-36.352-5.632-9.216-9.216-18.432-11.264-28.672-2.048-8.704-3.072-16.896-3.072-35.84 0-29.696-24.064-53.76-53.76-54.272-29.696 0-53.76 24.064-54.272 53.76-0.512 2.56-0.512 5.12 0 7.68z m53.248-142.336h269.312c29.696 0 53.76-24.064 53.76-53.76s-24.064-53.76-53.76-53.76h-269.312c-29.696 0-53.76 24.064-53.76 53.76s24.064 53.76 53.76 53.76z m0-161.792h161.792c29.696 0 53.76-24.064 53.76-53.76s-24.064-53.76-53.76-53.76h-161.792c-29.696 0-53.76 24.064-53.76 53.76s24.064 53.76 53.76 53.76z"  horiz-adv-x="1077" />
      
      <glyph glyph-name="zhanghao1" unicode="&#59417;" d="M480.256 540.672v6.656c0 15.872-12.8 28.672-28.672 28.672h-230.4c-15.872 0-28.672-12.8-28.672-28.672v-6.656c0-15.872 12.8-28.672 28.672-28.672h230.4c15.36 0 28.16 12.8 28.672 28.672zM759.808 351.232c33.28 28.672 54.784 70.144 54.784 117.76 0 85.504-69.632 155.136-155.136 155.136-85.504 0-155.136-69.632-155.136-155.136 0-47.104 21.504-89.088 54.784-117.76-63.488-36.352-102.4-104.448-102.4-177.664 0-17.92 14.336-32.256 32.256-32.256s32.256 14.336 32.256 32.256c0 76.8 61.44 139.264 136.704 140.288h4.096c75.264-1.024 136.704-63.488 136.704-139.776 0-17.92 14.336-32.256 32.256-32.256s32.256 14.336 32.256 32.256c-0.512 73.216-39.936 140.8-103.424 177.152z m-97.792 26.624h-5.12c-49.152 1.536-88.576 41.472-88.576 90.624 0 50.176 40.96 91.136 91.136 91.136s91.136-40.96 91.136-91.136c0.512-49.152-39.424-89.088-88.576-90.624zM387.072 415.744H220.672c-19.456 0-28.672-9.728-28.672-28.672v-6.656c0-19.456 9.728-28.672 28.672-28.672h166.4c19.456 0 28.672 9.728 28.672 28.672v6.656c0.512 19.456-9.216 28.672-28.672 28.672zM320 256H224.256c-17.92 0-32.256-14.336-32.256-32.256s14.336-32.256 32.256-32.256h96.256c17.92 0 32.256 14.336 32.256 32.256S337.92 256 320 256z"  horiz-adv-x="1024" />
      
      <glyph glyph-name="qingjiaguanli-danchuang-banji_fuzhi" unicode="&#59409;" d="M957.44 131.584l25.6 1.536v2.048l-25.6-1.536-17.92-2.048zM942.08 74.752l-6.656 59.392c-1.024 61.44-45.568 97.792-176.64 162.816-43.52 21.504-47.616 25.088-47.616 32.768 0.512 2.56 2.56 7.168 6.144 13.312 3.072 4.608 6.144 8.704 8.704 11.264 18.432 18.944 30.72 46.08 38.4 80.384 4.096 18.944 7.168 37.888 8.192 56.832 1.024 10.752 1.024 20.992 1.024 28.16v8.704c0 80.384-33.28 139.776-94.72 172.544-19.456 10.24-40.448 17.408-61.952 21.504-9.728 2.048-19.968 3.072-29.696 3.072h-9.216c-8.192 0-18.944-1.024-30.208-3.072-13.312-2.56-26.624-6.656-39.424-11.264-4.608 3.072-9.728 6.144-14.848 8.704-10.24 5.12-20.992 9.728-31.744 13.312l-4.608 1.536c-2.56 0.512-4.608 1.536-7.168 2.048-2.048 0.512-4.608 0.512-6.656 1.024l-6.144 1.536c-9.216 2.048-18.432 3.072-27.648 3.072h-8.192c-9.216 0-18.432-1.024-27.648-3.072l-6.144-1.536-6.144-1.536c-2.56-0.512-4.608-1.536-7.168-2.048l-4.608-1.536c-11.264-3.584-22.016-7.68-31.744-13.312-56.32-30.208-86.528-83.968-86.528-156.16v-8.192c0-6.656 0.512-15.872 1.024-25.6 1.536-17.92 3.584-35.328 7.68-51.2 7.168-31.232 18.432-55.808 35.328-73.216 2.048-2.048 4.608-5.632 7.168-9.216 3.072-4.608 5.12-8.704 5.12-10.24 0-3.072 0-2.56-1.536-3.584-5.12-4.608-16.896-11.264-39.936-23.04-119.808-58.88-159.744-92.16-160.256-149.504l-4.096-53.248c-1.536-23.04 15.872-43.008 38.4-44.544 3.072 0 46.08-0.512 108.032-0.512l-2.56-37.888c-1.536-24.064 16.384-45.056 40.448-46.592 12.8-1.024 627.2-1.024 637.952 0 23.552 2.56 40.448 24.064 37.888 48.128zM233.472 162.304c-33.28 0-66.56 0-100.352 0.512l3.072 44.032v1.536c0 29.696 29.184 54.272 131.584 104.448C323.584 339.968 337.92 353.28 337.92 386.048c0 2.048 0 4.096-0.512 6.144-1.536 10.24-6.144 21.504-13.312 32.256-4.096 6.144-8.192 11.776-13.312 16.896-9.728 9.728-16.896 26.112-22.528 49.152-3.072 14.336-5.12 28.672-6.144 43.52-0.512 7.168-1.024 14.336-1.024 21.504v8.192c0 54.272 20.48 90.624 59.392 111.104 8.192 4.096 16.384 7.68 25.088 10.24l0.512-0.512c6.144 2.048 11.776 3.584 17.92 4.608 7.68 1.536 14.336 2.048 18.432 2.048h6.144c4.096 0 10.752-0.512 18.432-2.048 6.144-1.024 11.776-2.56 17.92-4.608l0.512 0.512c3.584-1.024 7.168-2.56 11.264-4.096-42.496-34.816-65.024-86.528-65.024-152.064v-9.216c0-7.68 0.512-17.408 1.024-28.16 1.536-19.968 4.096-38.912 8.192-56.832 7.68-34.304 20.48-61.44 38.4-80.384 2.048-2.048 5.632-6.656 8.704-11.264 4.096-5.632 6.144-10.752 6.144-13.312 0-7.68-4.096-11.264-47.616-32.768-110.08-54.272-159.232-88.576-173.056-134.656z m656.384-84.992c-67.072-0.512-545.792-0.512-612.864 0l3.584 52.224c0 36.864 33.28 64.512 148.48 121.344 60.416 29.696 76.288 44.544 76.288 78.848 0 2.048 0 4.096-0.512 6.144-1.536 11.264-6.656 23.04-14.336 34.816-4.096 6.656-9.216 12.8-14.336 18.432-11.264 11.264-19.456 30.208-25.6 56.32-3.584 16.384-6.144 32.768-7.168 49.152-0.512 8.192-1.024 16.384-1.024 24.576v9.216c0 61.44 23.552 103.424 67.584 126.976 14.848 7.68 30.72 13.312 47.104 16.384 8.704 1.536 16.384 2.56 20.992 2.56h8.704c4.608 0 12.288-1.024 20.992-2.56 16.896-3.072 32.768-8.704 47.104-16.384 44.032-24.064 67.584-65.536 67.584-126.976v-9.216c0-6.144-0.512-14.848-1.024-24.576-1.536-17.408-3.584-34.304-7.168-49.152-6.144-26.112-14.848-45.056-25.6-56.32-5.12-5.632-10.24-11.776-14.336-18.432-7.68-11.776-12.8-23.552-14.336-34.816-0.512-2.048-0.512-4.096-0.512-6.144 0-34.816 15.872-49.152 76.288-78.848 115.2-56.832 148.48-84.48 148.48-119.296h7.168l-7.168-1.024 5.632-53.248z"  horiz-adv-x="1024" />
      
      <glyph glyph-name="nv2" unicode="&#58902;" d="M887.394 761.927c-65.748 64.498-152.677 100.027-244.767 100.027-94.623 0-183.228-37.19-249.488-104.727-125.363-127.78-132.38-328.123-22.52-464.144l-84.835-86.477-191.63 188.002-56.764-57.859 191.623-188.009-134.352-136.946 57.859-56.764 134.352 136.946 191.623-188.003 56.764 57.859-191.617 188.002 84.829 86.47c61.053-47.504 135.69-73.367 214.135-73.367 94.629 0 183.234 37.196 249.495 104.734 134.967 137.581 132.853 359.295-4.708 494.256zM834.244 324.436c-50.887-51.874-118.945-80.445-191.636-80.445-70.739 0-137.5 27.288-187.996 76.838-105.659 103.66-107.281 273.96-3.621 379.626 50.895 51.874 118.945 80.438 191.63 80.438 70.739 0 137.5-27.288 188.003-76.832 105.667-103.654 107.287-273.952 3.621-379.626z"  horiz-adv-x="1026" />
      
      <glyph glyph-name="shengri" unicode="&#59408;" d="M511.232 649.045333a32 32 0 0 0 31.850667-28.906666l0.149333-3.093334-0.021333-120.106666h74.666666v41.493333a32 32 0 0 0 63.872 3.093333l0.149334-3.093333v-41.813333a160 160 0 0 0 150.016-154.389334l0.085333-5.312v-255.978666h32a32 32 0 0 0 3.072-63.872l-3.072-0.149334h-682.666667a32 32 0 0 0-3.072 63.872l3.072 0.128 32 0.021334v256a160.064 160.064 0 0 0 127.210667 156.629333v67.754667a32 32 0 0 0 63.872 3.072l0.149333-3.072-0.021333-64.384h74.666667v120.106666a32 32 0 0 0 32 32zM768 233.536H277.333333v-141.930667h490.666667v141.930667z m-96 199.381333h-298.666667a96 96 0 0 1-95.893333-91.477333l-0.106667-4.522667v-39.381333h490.666667v39.381333a96 96 0 0 1-86.890667 95.573334l-4.586666 0.341333-4.522667 0.085333z m-22.101333 221.12a32 32 0 0 0 31.850666-28.928l0.149334-3.072v-7.786666a32 32 0 0 0-63.850667-3.072l-0.149333 3.072v7.786666a32 32 0 0 0 32 32z m-277.333334 24.384a32 32 0 0 0 31.850667-28.928l0.149333-3.072v-10.837333a32 32 0 0 0-63.850666-3.072l-0.149334 3.072v10.837333a32 32 0 0 0 32 32zM511.232 746.666667a32 32 0 0 0 31.850667-28.928l0.149333-3.072v-15.082667a32 32 0 0 0-63.850667-3.072l-0.149333 3.072V714.666667a32 32 0 0 0 32 32z"  horiz-adv-x="1024" />
      
      <glyph glyph-name="jiantou2" unicode="&#59407;" d="M776.235386-42.0306L347.19184 382.393095 773.423303 813.24441c18.88113 18.88113 18.88113 49.613182-0.200863 68.695174-19.081993 19.081993-49.814045 19.081993-68.695174-4.619851L249.773244 422.565712c-6.226756-6.829345-13.256964-15.064731-14.261279-19.282856-7.231071-17.876814-3.615536-39.770891 10.846607-57.848568l461.18164-461.18164c19.081993-14.261279 50.014908-14.261279 68.896038 4.619851 18.88113 19.081993 18.88113 49.814045-0.200864 69.096901z m0 0"  horiz-adv-x="1024" />
      
      <glyph glyph-name="weikaifang" unicode="&#59405;" d="M742.912 315.392c-10.752-18.432-18.944-36.864-23.552-55.296 20.992 7.168 41.472 19.456 61.44 37.376l-23.552 24.064c-4.096-2.048-8.704-4.096-14.336-6.144zM588.288 519.168l-33.792-33.792-2.048-1.536 38.4-38.912 35.84 35.328zM886.272 395.776L479.744 801.792c-5.632 5.632-13.312 8.704-20.992 8.704H41.472c-26.624 0-39.936-31.744-20.992-50.688l823.808-835.072c18.944-18.944 51.2-5.632 51.2 20.992v429.056c-0.512 7.68-3.584 15.36-9.216 20.992zM409.088 484.864c-5.632 41.472-2.56 77.824 9.728 109.056l-0.512 0.512-66.56-65.536-13.824 14.336 66.56 65.536-0.512 0.512c-34.304-13.312-71.168-15.36-110.592-6.656l5.12 20.992c33.792-10.24 65.536-11.264 94.72-3.072l-45.056 46.08 13.824 13.312 56.832-57.344 23.04 22.528-48.128 48.64 13.824 13.312 48.128-48.64 18.944 18.944 13.824-14.336-18.944-18.944 49.152-49.664-13.824-13.312-49.152 49.664-23.04-22.528 56.832-57.344-13.824-13.312-45.056 46.08c-7.68-26.624-7.168-58.368 1.536-95.232l-23.04-3.584z m103.936-116.224l64 63.488-38.912 39.936c-16.384-13.312-31.744-22.528-45.568-27.648-17.92-6.656-36.864-6.656-56.832 0l4.608 19.456c18.944-5.12 35.328-4.096 50.688 2.048 10.24 4.608 21.504 11.776 33.28 20.992l-32.256 32.768 13.824 13.312 33.28-33.792 3.584 3.072 32.256 31.744-25.6 26.112L563.2 573.44l114.176-117.76-13.824-13.312L640 465.92l-35.84-34.816 30.72-31.232-13.824-13.312-30.72 31.232-64-63.488-13.312 14.336z m94.208-95.744c-1.536 1.536-4.608 5.12-9.728 11.264l9.216 14.848c4.096-5.12 7.68-9.216 10.752-12.288 4.608-4.608 9.728-5.632 15.36-1.536 5.12 3.584 22.016 19.456 50.688 47.104l-15.36 15.872c-32.768-28.16-62.464-45.056-89.088-50.176l-1.024 20.48c28.16 5.12 60.928 26.112 98.816 62.464l10.752 10.752-14.336 14.848 13.312 13.312 26.624-27.136c4.096 9.728 7.68 18.944 9.728 28.16l16.384-12.288c-3.584-10.24-7.68-20.48-12.288-30.208l20.992-21.504-13.312-13.312-34.304 34.816-18.944-18.432 27.648-28.16c-36.352-35.84-59.904-57.856-70.656-65.536-9.728-6.656-19.968-4.608-31.232 6.656z m195.584 2.048l-9.216 9.216c-25.6-23.04-51.712-37.888-79.36-45.056-3.072-20.48-2.048-39.936 2.56-57.856l-19.968-3.584c-4.608 18.432-5.632 37.888-2.048 57.856-19.456-2.048-39.424-0.512-59.392 4.608l4.608 19.968c19.968-6.144 39.936-7.68 58.88-4.608 4.608 17.408 11.776 35.328 20.992 52.736-6.144-1.536-10.752-2.048-14.848-2.56l2.048 19.456c24.576 4.608 50.688 17.408 78.848 37.888l11.264-16.384c-8.192-5.632-16.384-11.264-24.064-15.872l41.984-42.496-12.288-13.312z"  horiz-adv-x="1024" />
      
      <glyph glyph-name="keqiandao" unicode="&#59406;" d="M580.096 475.136c-16.896 2.048-35.328 7.168-55.296 14.336l68.608-70.144c-7.168 19.968-11.776 38.4-13.312 55.808zM359.95136 623.29856l31.744 31.24224 32.68096-33.2032-31.744-31.24224zM886.272 395.776L479.744 801.792c-5.632 5.632-13.312 8.704-20.992 8.704H41.472c-26.624 0-39.936-31.744-20.992-50.688l823.808-835.072c18.944-18.944 51.2-5.632 51.2 20.992v429.056c-0.512 7.68-3.584 15.36-9.216 20.992z m-93.184-69.12l-91.136-89.6-13.312 13.824 91.136 89.6 13.312-13.824z m-89.088 107.008l73.216-74.752-13.312-13.312-36.864 37.376c-18.432-6.144-33.792-10.24-46.592-11.776 11.776-10.24 25.088-19.968 38.912-30.208 2.56 12.8 4.096 19.968 4.608 22.528l17.408-4.096c-3.584-23.552-7.68-41.984-11.776-55.808l-19.456 3.584 5.12 16.896c-22.016 15.36-44.544 32.768-68.096 52.224l9.728 15.36c2.56-2.048 5.12-3.584 6.656-4.096 8.704-1.024 24.576 2.56 48.64 10.24l-22.016 22.016 13.824 13.824z m-51.712 58.368c-2.56-1.536-6.656-3.584-12.288-6.144l40.96-41.472-12.288-12.288-20.48 20.992c-2.048-7.168-4.096-13.824-7.168-20.48l-17.408 8.192c3.584 8.192 7.168 16.896 10.24 26.624l-11.776 11.776c-7.68-2.56-14.848-4.096-21.504-5.12l-4.096 19.456c16.896 2.56 31.744 7.68 45.056 15.36l10.752-16.896zM508.416 481.28l10.752 10.24c-11.264 4.608-21.504 9.216-30.72 13.824l5.632 18.944c33.28-17.408 64-28.16 93.184-33.28l8.704-8.704c5.12-31.744 15.872-62.976 31.744-94.208l-18.944-5.12c-5.12 10.24-9.216 20.48-12.8 30.72l-10.24-10.24L508.416 481.28z m35.328-40.96c-4.608-11.264-11.264-23.552-19.968-37.376l-15.36 9.728c7.168 12.288 13.312 24.576 18.432 36.864l16.896-9.216zM506.88 471.552c-3.584-11.776-9.216-24.064-15.872-37.888l-15.872 9.728c6.656 12.288 11.776 25.088 14.848 37.376l16.896-9.216z m84.48 82.432l-12.288-6.144 36.352-36.864-12.288-12.288-18.432 18.432c-2.048-5.632-4.608-11.776-7.68-17.408l-17.408 8.192c4.096 7.168 7.68 14.848 10.752 23.04l-9.728 9.728c-11.264-3.584-22.016-5.632-32.256-7.168l-4.096 19.968c20.48 2.048 38.912 7.68 55.808 16.896l11.264-16.384z m-256.512 44.544l-13.312 13.312 69.12 68.096L450.56 620.032l-57.344-56.32-46.08 46.592-12.288-11.776z m43.008-94.72L353.28 528.896l10.24 16.896c8.704-9.728 15.872-17.408 22.016-24.064 4.096-4.096 8.192-4.096 12.8 0.512l94.72 93.184L394.24 715.776l13.824 13.312 131.072-133.12-13.824-13.312-18.432 18.432-97.792-96.768c-10.752-10.24-20.992-10.752-31.232-0.512z m179.2-175.616L433.152 454.656l13.312 12.8 80.384-81.408c14.336 4.096 30.208 10.24 48.128 19.456l10.24-17.408c-14.848-7.68-29.184-13.312-43.52-17.408l28.672-29.184-13.312-13.312z m18.432-23.04l10.24 16.384c11.264-9.216 23.552-18.944 37.376-29.696l24.576 24.064-27.136 27.648 13.312 13.312 27.136-27.648 15.872 15.36 13.824-14.336-15.872-15.36 24.576-25.088-13.312-13.312-24.576 25.088-22.016-22.016c8.192-6.144 19.968-13.824 34.816-23.552l-13.824-13.824c-28.672 19.968-57.344 40.96-84.992 62.976z m139.776-113.152c-10.24-9.728-19.968-9.728-29.696 0l-21.504 22.016 10.752 16.384c7.168-8.192 13.824-15.36 18.944-20.992 3.584-3.584 7.68-3.584 11.264 0l116.736 114.688 13.824-14.336-120.32-117.76z"  horiz-adv-x="1024" />
      
      <glyph glyph-name="peizhitubiaosvg-" unicode="&#59404;" d="M821.333333 847.36h-618.666666A74.666667 74.666667 0 0 1 128 772.693333V49.066667a74.666667 74.666667 0 0 1 65.706667-74.24l448-53.76h8.96a74.026667 74.026667 0 0 1 73.386666 62.72h97.28a74.666667 74.666667 0 0 1 74.666667 74.666666V772.693333a74.666667 74.666667 0 0 1-74.666667 74.666667zM661.333333-4.693333a10.666667 10.666667 0 0 0-11.946666-10.666667l-448 53.76a10.666667 10.666667 0 0 0-9.386667 10.666667V718.08A10.666667 10.666667 0 0 0 195.626667 725.333333a10.666667 10.666667 0 0 0 8.32 2.56l448-53.76a10.666667 10.666667 0 0 0 9.386666-10.666666z m170.666667 62.72a10.666667 10.666667 0 0 0-10.666667-10.666667H725.333333V664.32a74.666667 74.666667 0 0 1-65.706666 74.24l-374.613334 44.8H821.333333a10.666667 10.666667 0 0 0 10.666667-10.666667zM565.333333 431.36a32 32 0 0 1-32-32v-128a32 32 0 0 1 64 0v128a32 32 0 0 1-32 32z"  horiz-adv-x="1024" />
      
      <glyph glyph-name="tuichu" unicode="&#58928;" d="M473.946312 722.218048c0 29.457916 24.090675 53.597709 53.54859 53.597709 29.458939 0 53.597709-24.139793 53.597709-53.597709l0-294.681486c0-29.457916-24.13877-53.597709-53.597709-53.597709-29.457916 0-53.54859 24.139793-53.54859 53.597709L473.946312 722.218048 473.946312 722.218048zM527.494902 25.611563c-192.31812 0-348.278171 155.964144-348.278171 348.279195 0 144.880715 88.524173 269.019013 214.387765 321.529971l0-121.033587c-64.681138-43.25106-107.195418-116.850311-107.195418-200.496383 0-133.151579 107.932198-241.131873 241.135966-241.131873 133.251863 0 241.185085 107.928105 241.185085 241.131873 0 83.59593-42.612517 157.193135-107.293655 200.496383L661.436474 695.469847c125.960807-52.511981 214.388788-176.650279 214.388788-321.530994C875.824239 181.575708 719.863165 25.611563 527.494902 25.611563L527.494902 25.611563z"  horiz-adv-x="1024" />
      
      <glyph glyph-name="icon_succeed" unicode="&#58880;" d="M512 896C229.234286 896 0 666.765714 0 384s229.234286-512 512-512 512 229.234286 512 512S794.765714 896 512 896z m0-914.285714C289.828571-18.285713999999984 109.714286 161.828571 109.714286 384S289.828571 786.285714 512 786.285714s402.285714-180.114286 402.285714-402.285714-180.114286-402.285714-402.285714-402.285714zM759.062857 557.7828569999999a55.017143 55.017143 0 0 1-77.188571-7.771428L480 302.937143 352.64 450.754286a55.017143 55.017143 0 0 1-77.371429 5.714285 55.017143 55.017143 0 0 1-5.714285-77.371428L436.571429 185.14285700000005a54.4 54.4 0 0 1 11.154285-9.828571 55.017143 55.017143 0 0 1 76.48 8.32L766.857143 480.594286a55.017143 55.017143 0 0 1-7.794286 77.188571z"  horiz-adv-x="1024" />
      
      <glyph glyph-name="shouye-wodexiaoxi-qingjia" unicode="&#59372;" d="M512 112.64c-8.192 0-16.384 2.56-23.04 7.168L411.136 174.08h-1.024l-78.336-45.568c-12.288-7.168-28.16-7.168-40.448 0-12.8 7.168-20.48 20.992-19.968 35.328V614.4c0 22.528 17.92 40.96 40.448 40.96h400.384c22.528 0 40.448-18.432 40.448-40.96v-449.536c0-14.848-7.68-28.16-20.48-35.328-12.288-7.168-28.16-7.168-40.448 0l-76.8 45.056h-1.024l-79.872-54.784c-6.144-4.608-13.824-7.168-22.016-7.168z m-101.376 101.888c8.192 0 16.384-2.56 23.04-7.168l77.824-54.272h1.024l79.872 54.784c12.8 8.704 29.696 9.216 43.008 1.536l76.8-45.056c0.512 0 1.024 0 1.024 0.512V614.4c0 0.512-0.512 1.024-1.024 1.024H311.808c-0.512 0-1.024-0.512-1.024-1.024v-450.048c0-0.512 0-0.512 0.512-0.512h1.024l78.336 45.568c6.144 3.584 12.8 5.12 19.968 5.12z m210.432 149.504H475.648V530.432h39.424v-126.464h105.984v-39.936z"  horiz-adv-x="1024" />
      
      <glyph glyph-name="wode-kebiao" unicode="&#59373;" d="M864.768 795.648c-18.432-3.584-31.232-20.992-31.232-39.936v-645.632c0-48.128-38.912-87.04-87.04-87.04h-527.36c-16.384 0-29.696 13.312-29.696 29.696v110.592c0 15.872 13.312 29.184 29.184 29.184h375.808c88.064 0 159.744 71.168 159.744 159.744v358.4c0 66.048-53.76 119.808-119.808 119.808H230.4c-66.048 0-119.808-53.76-119.808-119.808v-657.92c0-59.904 48.64-108.544 108.544-108.544h526.848c91.648 0 165.888 74.24 165.888 165.888V756.736c0.512 24.576-21.504 44.032-47.104 38.912z"  horiz-adv-x="1024" />
      
      <glyph glyph-name="wode-mima" unicode="&#59374;" d="M808.448 525.824h-17.92V617.472C790.528 771.072 665.6 896 512 896S233.472 771.072 233.472 617.472v-91.648h-17.92c-69.632-0.512-126.464-56.832-126.464-126.464v-400.384c0.512-69.632 56.832-126.464 126.464-126.464h592.896c69.632 0 126.464 56.832 126.464 126.464V398.848c0 70.144-56.832 126.464-126.464 126.976zM314.88 617.472c0 109.056 88.064 197.12 197.12 197.12s197.12-88.064 197.12-197.12v-91.648h-394.24V617.472z m288.768-400.384c-9.216-16.384-23.04-29.696-38.912-38.912l-1.024-0.512v-131.072H459.264v131.584c-50.688 29.184-68.096 93.696-38.912 144.384 29.184 50.688 93.696 68.096 144.384 38.912 50.688-29.184 68.096-93.696 38.912-144.384z"  horiz-adv-x="1024" />
      
      <glyph glyph-name="wode-xiaoxi" unicode="&#59375;" d="M515.494793 49.944062h-136.157726c-25.353508 0-46.011921-20.658414-46.011921-46.011921v-0.939019c0-25.353508 20.658414-46.011921 46.011921-46.011921h136.627236c25.353508 0 46.011921 20.658414 46.011921 46.011921v0.939019c-0.469509 25.353508-21.127923 46.011921-46.481431 46.011921zM816.919828 216.619899h-20.188905c-12.207244 0-22.066942 9.859697-22.066941 22.066942V479.075653C774.663982 639.647868 660.103688 773.458047 507.982643 802.56763c-10.329207 1.878038-17.841357 10.798716-17.841357 21.597432v26.292526c0 24.883998-20.188904 45.542412-45.542412 45.542412-24.883998 0-45.542412-20.188904-45.542412-45.542412v-26.292526c0-10.329207-7.51215-19.249885-17.841357-21.597432C230.033078 772.519028 116.411804 639.178359 116.411804 479.075653v-240.388812c0-12.207244-9.859697-22.066942-22.066942-22.066942H76.973014c-25.353508 0-46.011921-20.658414-46.011921-46.011921v-0.939019c0-25.353508 20.658414-46.011921 46.011921-46.011921h38.96928v-1.878038H774.663982v1.878038h41.786336c25.353508 0 46.011921 20.658414 46.011921 46.011921v0.939019c0 25.353508-20.188904 46.011921-45.542411 46.011921z"  horiz-adv-x="1024" />
      
      <glyph glyph-name="wode-tuichu" unicode="&#59376;" d="M761.856 259.072c-12.8-32.256-35.328-60.928-57.856-86.528-24.576-25.088-53.76-44.544-86.528-57.856-31.744-12.8-67.072-22.528-105.472-22.528s-73.728 6.144-105.472 22.528c-31.232 15.36-60.416 34.816-86.528 57.856-25.088 24.576-44.544 53.76-57.344 86.528-12.8 31.744-22.528 67.072-22.528 105.472 0 22.528 3.072 44.544 6.656 64 6.144 22.528 12.8 41.472 22.528 60.928 9.728 18.944 22.528 35.328 35.328 54.272 13.824 17.408 29.696 32.256 48.128 44.544 9.728 6.656 19.456 9.728 28.672 6.656 9.728-3.072 19.456-6.656 25.6-15.872 6.656-9.728 9.728-19.456 6.656-28.672-3.072-9.728-6.656-18.944-15.872-25.6-25.6-19.456-48.128-41.472-60.928-70.144s-22.528-57.856-22.528-89.6c0-25.6 6.656-51.2 15.872-76.8 9.728-25.6 25.6-45.056 41.472-60.928 17.408-17.92 37.888-31.744 60.928-41.472 24.064-10.752 50.176-15.872 76.8-15.872 25.6 0 51.2 6.144 76.8 15.872 25.6 9.728 45.056 25.6 60.928 41.472 17.92 17.408 31.744 37.888 41.472 60.928 10.752 24.064 15.872 50.176 15.872 76.8 0 31.744-6.144 60.928-18.944 86.528-12.8 25.6-32.256 51.2-57.856 67.072-9.728 6.144-12.8 15.872-15.872 25.6-3.072 9.728 0 18.944 6.656 28.672 6.144 9.728 15.872 12.8 25.6 15.872 9.728 3.072 18.944 0 28.672-6.144 16.384-13.312 31.744-28.16 45.056-45.056 12.8-15.872 25.6-35.328 35.328-51.2 9.728-18.944 15.872-38.4 22.528-57.344 6.144-19.456 6.144-41.472 6.144-64 2.048-38.4-4.096-73.728-19.968-105.984zM473.6 630.272c0 9.728 3.072 18.944 12.8 28.672 7.68 8.192 17.92 12.8 28.672 12.8 9.728 0 18.944-3.072 25.6-12.8 8.192-7.68 12.8-17.92 12.8-28.672v-230.4c0-9.728-3.072-19.456-12.8-25.6-6.656-6.144-15.872-12.8-25.6-12.8s-19.456 3.072-28.672 12.8c-6.144 6.144-12.8 15.872-12.8 25.6v230.4zM512 896C230.4 896 0 665.6 0 384s230.4-512 512-512 512 230.4 512 512S793.6 896 512 896z"  horiz-adv-x="1024" />
      
      <glyph glyph-name="yitongguo" unicode="&#59377;" d="M794.624 482.304l-328.192-336.384c-7.68-8.192-18.432-12.8-29.696-12.8-11.264 0-22.016 4.608-29.696 12.288L230.4 322.048c-16.384 16.384-16.384 43.008 0 59.392 16.384 16.384 43.008 16.384 59.392 0l146.432-146.432 298.496 305.664c16.384 16.384 43.008 16.896 59.392 0.512 16.384-15.872 16.384-42.496 0.512-58.88z"  horiz-adv-x="1024" />
      
      <glyph glyph-name="wode-yuyue" unicode="&#59378;" d="M5908.558902 82.542056h-1188.727779v-83.280175h369.975741l-126.854643-126.854643 0.203619-0.407238h117.488169l127.058262 127.261881h212.985484l127.261881-127.261881H5665.234186l0.203619 0.407238-126.651024 126.854643h369.772121zM5314.398632 387.359714c90.814078 0 164.320541 73.506463 164.320541 164.320541s-73.506463 164.320541-164.320541 164.32054S5150.078091 642.290714 5150.078091 551.680255c0-90.814078 73.506463-164.320541 164.320541-164.320541zM5293.833112 633.942334c0 13.642474 6.923046 20.56552 20.56552 20.56552s20.56552-6.923046 20.56552-20.56552V551.680255h82.26208c13.642474 0 20.56552-6.923046 20.56552-20.56552 0-13.642474-6.923046-20.56552-20.56552-20.56552H5314.398632c-3.461523 0-6.515808 0.407238-8.959236 1.221714-5.701332 1.832571-9.366474 6.10857-10.791808 12.21714-0.407238 2.03619-0.814476 4.479618-0.814476 6.923047v103.031218zM4876.414142 207.767747h875.765361c46.017896 0 83.483794 37.262279 83.483794 83.483794v521.264665c0 46.017896-37.262279 83.483794-83.483794 83.483794h-875.765361c-46.017896 0-83.483794-37.262279-83.483794-83.483794v-521.264665c0.203619-46.221515 37.465898-83.483794 83.483794-83.483794zM5314.398632 757.335454c113.415788 0 205.451581-92.035792 205.451581-205.45158S5427.81442 346.432293 5314.398632 346.432293C5200.779224 346.228674 5108.947051 438.264466 5108.947051 551.680255c0 113.619407 91.832173 205.6552 205.451581 205.655199z"  horiz-adv-x="14945" />
      
      <glyph glyph-name="yuyue-daishenhe" unicode="&#59379;" d="M512 810.496C276.48 810.496 85.504 619.52 85.504 384S276.48-42.496 512-42.496s426.496 190.976 426.496 426.496S747.52 810.496 512 810.496z m0-768c-188.416 0-341.504 152.576-341.504 341.504 0 188.416 152.576 341.504 341.504 341.504 188.416 0 341.504-153.088 341.504-341.504s-153.088-341.504-341.504-341.504zM725.504 384h-170.496V554.496c0 28.672-14.336 42.496-42.496 42.496s-42.496-14.336-42.496-42.496v-213.504c0-5.12 0.512-10.24 1.536-14.336 3.072-12.8 10.752-21.504 22.528-25.6 5.12-1.536 11.776-2.56 18.432-2.56h213.504c28.672 0 42.496 14.336 42.496 42.496-0.512 28.672-14.848 43.008-43.008 43.008z"  horiz-adv-x="1024" />
      
      <glyph glyph-name="yijujue" unicode="&#59380;" d="M568.32 384L860.16 675.84c15.36 15.36 15.36 38.4 0 53.76l-2.56 2.56c-15.36 15.36-38.4 15.36-53.76 0L512 437.76 220.16 732.16c-15.36 12.8-38.4 12.8-53.76 0l-2.56-2.56c-12.8-15.36-12.8-38.4 0-53.76L455.68 384 163.84 92.16c-15.36-15.36-15.36-38.4 0-53.76l2.56-2.56c15.36-15.36 38.4-15.36 53.76 0L512 327.68l291.84-291.84c15.36-15.36 38.4-15.36 53.76 0l2.56 2.56c15.36 15.36 15.36 38.4 0 53.76L568.32 384z m0 0"  horiz-adv-x="1024" />
      
      <glyph glyph-name="yuyue-yiguoqi" unicode="&#59381;" d="M739.84 814.592l196.608-163.84-54.784-65.536-196.608 163.84 54.784 65.536z m-455.68 0l54.784-65.536-196.608-163.84-54.784 65.536 196.608 163.84zM512 721.408c-211.968 0-384-172.032-384-384s172.032-384 384-384 384 172.032 384 384-172.032 384-384 384z m0-682.496c-164.864 0-298.496 134.144-298.496 298.496S347.136 635.904 512 635.904s298.496-134.144 298.496-298.496-133.632-298.496-298.496-298.496zM469.504 554.496h85.504v-256H469.504v256z m0-340.992h85.504V128H469.504v85.504z"  horiz-adv-x="1024" />
      
      <glyph glyph-name="yuyue-shaixuan-didian" unicode="&#59382;" d="M230.912 173.568c-160.256 159.744-160.256 419.328 0 579.072C391.168 912.384 650.24 912.384 810.496 752.64c159.744-159.744 159.744-419.328 0-579.072l-289.792-289.792-289.792 289.792z m414.208 165.376c68.608 68.608 68.608 179.712 0 248.32s-179.712 68.608-248.32 0-68.608-179.712 0-248.32 179.712-68.608 248.32 0z"  horiz-adv-x="1024" />
      
      <glyph glyph-name="wode-ziliao" unicode="&#59383;" d="M892.928 158.72c-20.992 49.152-50.688 93.184-88.576 131.072-37.888 37.888-81.92 67.584-131.072 88.576-10.752 4.608-22.016 8.704-33.28 12.288 63.488 40.448 104.96 111.616 104.96 192.512 0 125.952-102.4 228.352-228.352 228.352S287.744 709.632 287.744 583.68c0-79.36 40.448-149.504 102.4-190.464-13.312-4.096-26.624-8.704-39.424-14.336-49.152-20.992-93.184-50.688-131.072-88.576-37.888-37.888-67.584-81.92-88.576-131.072-21.504-51.2-32.256-104.96-32.256-160.768v-48.128h826.368v48.128c0 55.296-10.752 109.568-32.256 160.256z"  horiz-adv-x="1024" />
      
      <glyph glyph-name="yuyue-yitongguo" unicode="&#59384;" d="M794.624 482.304l-328.192-336.384c-7.68-8.192-18.432-12.8-29.696-12.8-11.264 0-22.016 4.608-29.696 12.288L230.4 322.048c-16.384 16.384-16.384 43.008 0 59.392 16.384 16.384 43.008 16.384 59.392 0l146.432-146.432 298.496 305.664c16.384 16.384 43.008 16.896 59.392 0.512 16.384-15.872 16.384-42.496 0.512-58.88z"  horiz-adv-x="1024" />
      
      <glyph glyph-name="rili-xiayige" unicode="&#59385;" d="M115.2 382.976c0-219.648 178.688-398.848 398.848-398.848 220.16 0 398.848 178.688 398.848 398.848s-178.688 398.848-398.848 398.848c-219.648 0-398.848-179.2-398.848-398.848zM507.392 588.8l164.352-164.352c23.04-23.04 23.04-60.416 0-82.944l-164.352-164.352c-23.04-23.04-60.416-23.04-82.944 0-11.264 11.264-17.408 26.624-17.408 41.472s5.632 30.208 17.408 41.472l122.368 122.88-122.368 122.368c-23.04 23.04-23.04 60.416 0 82.944 23.04 23.04 59.904 23.04 82.944 0.512z"  horiz-adv-x="1024" />
      
      <glyph glyph-name="menjin-qiandao" unicode="&#59386;" d="M864.256 896H160.256C71.68 896 0 824.32 0 735.744v-704C0-56.32 71.68-128 160.256-128h704c88.576 0 160.256 71.68 160.256 160.256V735.744C1024 824.32 952.32 896 864.256 896z m79.872-864.256c0-44.032-35.84-79.872-79.872-79.872H160.256c-44.032 0-79.872 35.84-79.872 79.872V735.744c0 44.032 35.84 79.872 79.872 79.872h704c44.032 0 79.872-35.84 79.872-79.872v-704zM663.552 533.504l-215.552-215.552-87.04 87.552c-15.36 15.36-40.96 15.36-56.32 0-15.872-15.36-15.872-40.96 0-56.32l115.712-115.712c15.36-15.36 40.96-15.36 56.32 0 1.024 1.024 2.048 2.56 3.072 3.584l240.128 240.128c15.872 15.872 15.872 40.96 0 56.32-15.36 15.872-40.96 15.872-56.32 0z"  horiz-adv-x="1024" />
      
      <glyph glyph-name="tab-shouye" unicode="&#59387;" d="M569.877749 874.506747c-31.216392 28.145927-78.808596 28.145927-110.536732 0L13.611882 451.294353c-16.887556-15.352324-17.911044-41.451274-2.558721-58.338831 15.352324-16.887556 40.93953-17.911044 57.827087-3.070465l7.164417 6.652674V-45.609195c0-45.545227 36.845577-82.390805 81.879061-82.390805h239.496252v247.684158c0 32.23988 26.098951 57.827086 57.827086 57.827086h112.583708c32.23988 0 57.827086-26.098951 57.827087-57.827086V-127.488256h245.125437c45.545227 0 82.390805 36.845577 82.390805 82.390805V391.42029c18.422789-16.375812 44.009995-15.352324 59.362319 1.535232s13.817091 42.986507-3.070465 58.338831L569.877749 874.506747z"  horiz-adv-x="1024" />
      
      <glyph glyph-name="shijian6" unicode="&#59388;" d="M512 810.496C276.48 810.496 85.504 619.52 85.504 384S276.48-42.496 512-42.496s426.496 190.976 426.496 426.496S747.52 810.496 512 810.496z m214.016-512h-213.504c-6.656 0-13.312 1.024-18.432 2.56-11.776 4.096-19.456 12.8-22.528 25.6-1.024 4.096-1.536 9.216-1.536 14.336V554.496c0 28.16 14.336 42.496 42.496 42.496s42.496-13.824 42.496-42.496V384h170.496c28.16 0 42.496-14.336 43.008-43.008 0-28.16-13.824-42.496-42.496-42.496z"  horiz-adv-x="1024" />
      
      <glyph glyph-name="shouyejingangqu-jiaoshijiankong" unicode="&#59389;" d="M637.44 79.36c79.36-29.696 129.536-81.92 129.536-143.36H247.296c0 61.44 53.76 115.2 135.68 143.36C232.96 133.12 125.44 276.48 125.44 445.44c0 215.04 171.52 386.56 386.56 386.56S898.56 660.48 898.56 445.44c0-168.96-107.52-312.32-261.12-366.08z m-117.76 483.84c-111.616 0-204.8-93.696-204.8-204.8s93.696-204.8 204.8-204.8c115.2 0 204.8 93.696 204.8 204.8s-91.136 204.8-204.8 204.8z m0-314.88C465.92 248.32 419.84 291.84 419.84 348.16c0 53.76 46.08 99.84 99.84 99.84S619.52 404.48 619.52 348.16c0-53.76-43.52-99.84-99.84-99.84z"  horiz-adv-x="1024" />
      
      <glyph glyph-name="shouyejingangqu-jiaoshiyuyue" unicode="&#59390;" d="M832 737.28h-93.696V791.04h-70.656V737.28H337.92V791.04H267.264V737.28H181.76C123.392 737.28 76.8 690.176 76.8 631.808V87.04c0-57.856 46.592-104.96 104.96-105.472h650.752c57.856 0 104.96 47.104 104.96 105.472V631.808C936.96 690.176 890.368 737.28 832 737.28zM288.256 142.848c-28.672 0-52.224 23.04-52.224 51.712s23.04 52.224 51.712 52.224 52.224-23.04 52.224-51.712v-0.512c0-28.672-23.04-51.712-51.712-51.712z m0 164.864c-28.672 0-52.224 23.04-52.224 51.712s23.04 52.224 51.712 52.224 52.224-23.04 52.224-51.712v-0.512c0-28.16-23.04-51.712-51.712-51.712z m204.288-164.864c-28.672 0-52.224 23.04-52.224 51.712s23.04 52.224 51.712 52.224 52.224-23.04 52.224-51.712v-0.512c0-28.672-23.04-51.712-51.712-51.712z m0 164.864c-28.672 0-52.224 23.04-52.224 51.712s23.04 52.224 51.712 52.224 52.224-23.04 52.224-51.712v-0.512c0-28.16-23.04-51.712-51.712-51.712z m295.424 46.592l-69.632-86.016c-7.168-9.216-20.992-10.752-30.208-3.072l-47.104 38.4c-13.824 11.264-15.872 31.744-4.608 45.568s31.232 15.872 45.056 5.12l13.824-11.264 42.496 52.736c11.264 13.824 31.232 15.872 45.056 5.12 14.336-12.8 16.384-32.768 5.12-46.592zM871.936 537.6c0-17.92-14.336-32.256-32.256-32.256H172.032c-17.92 0-32.256 14.336-32.256 32.256s14.336 32.256 32.256 32.256H839.68c17.92 0 32.256-14.336 32.256-32.256z"  horiz-adv-x="1024" />
      
      <glyph glyph-name="shouyejingangqu-ketangkaoqin" unicode="&#59391;" d="M991.76012-63.52024h-32.23988v383.808096c0 36.333833-28.657671 63.968016-64.47976 63.968016h-126.912544c-36.333833 0-64.47976-28.657671-64.47976-63.968016v-383.808096H639.68016V831.52024c0 35.822089-28.657671 64.47976-64.47976 64.47976H448.287856C411.954023 896 383.808096 867.342329 383.808096 831.52024v-895.04048H319.84008V576.671664c0 35.310345-29.169415 63.456272-64.47976 63.456272H128.447776c-36.333833 0-64.47976-28.657671-64.47976-63.456272v-640.191904H31.728136c-17.3993 0-31.728136-14.328836-31.728136-32.23988 0-16.887556 14.328836-32.23988 31.728136-32.23988h960.031984c17.3993 0 31.728136 14.328836 31.728136 32.23988 0 17.3993-14.328836 32.23988-31.728136 32.23988z"  horiz-adv-x="1024" />
      
      <glyph glyph-name="shouyejingangqu-menjinkaimen" unicode="&#59392;" d="M832.512 886.784H199.68c-52.736 0-91.136-30.208-95.744-74.752v-855.552c0-48.64 39.424-82.944 96.256-82.944h632.832c53.248 0 96.256 34.304 96.256 76.288v860.16c0 43.008-43.52 76.8-96.768 76.8z m32.256-902.656c1.024-34.304-37.888-45.568-54.784-45.568H437.248l276.48 35.328c23.04 3.584 54.272 17.408 54.272 47.104V744.448c0 35.84-31.744 43.52-54.784 47.104l-291.328 35.84h387.584c16.896 0 55.296-10.24 54.784-45.568v-797.696h0.512z m-283.648 396.8c0 24.576 19.968 44.544 45.056 44.544 24.576 0 44.544-19.968 44.544-44.544 0-24.576-19.968-44.544-44.544-44.544-24.576-0.512-45.056 19.968-45.056 44.544z"  horiz-adv-x="1024" />
      
      <glyph glyph-name="tab-wode" unicode="&#59393;" d="M705.024 240.64c-56.32-49.664-130.048-82.944-215.04-82.944s-158.208 33.28-220.672 82.944C128 168.96 32.256 75.264 32.256-96.256H936.96c0 171.52-96.256 259.584-231.936 336.896zM221.696 482.816a263.168 252.416 90 1 1 504.832 0 263.168 252.416 90 1 1-504.832 0Z"  horiz-adv-x="1024" />
      
      <glyph glyph-name="buqian" unicode="&#59394;" d="M800.256 432.128h-240.128V671.744c0 26.624-21.504 48.128-48.128 48.128s-48.128-21.504-48.128-48.128v-240.128H224.256c-26.624 0-48.128-21.504-48.128-48.128s21.504-48.128 48.128-48.128h240.128v-240.128c0-26.624 21.504-48.128 48.128-48.128s48.128 21.504 48.128 48.128v240.128h240.128c26.624 0 48.128 21.504 48.128 48.128s-22.528 48.64-48.64 48.64z"  horiz-adv-x="1024" />
      
      <glyph glyph-name="kemu" unicode="&#59395;" d="M864.768 795.648c-18.432-3.584-31.232-20.992-31.232-39.936v-645.632c0-48.128-38.912-87.04-87.04-87.04h-527.36c-16.384 0-29.696 13.312-29.696 29.696v110.592c0 15.872 13.312 29.184 29.184 29.184h375.808c88.064 0 159.744 71.168 159.744 159.744v358.4c0 66.048-53.76 119.808-119.808 119.808H230.4c-66.048 0-119.808-53.76-119.808-119.808v-657.92c0-59.904 48.64-108.544 108.544-108.544h526.848c91.648 0 165.888 74.24 165.888 165.888V756.736c0.512 24.576-21.504 44.032-47.104 38.912z"  horiz-adv-x="1024" />
      
      <glyph glyph-name="daishenpi" unicode="&#59396;" d="M512 810.496C276.48 810.496 85.504 619.52 85.504 384S276.48-42.496 512-42.496s426.496 190.976 426.496 426.496S747.52 810.496 512 810.496z m0-768c-188.416 0-341.504 152.576-341.504 341.504 0 188.416 152.576 341.504 341.504 341.504 188.416 0 341.504-153.088 341.504-341.504s-153.088-341.504-341.504-341.504zM725.504 384h-170.496V554.496c0 28.672-14.336 42.496-42.496 42.496s-42.496-14.336-42.496-42.496v-213.504c0-5.12 0.512-10.24 1.536-14.336 3.072-12.8 10.752-21.504 22.528-25.6 5.12-1.536 11.776-2.56 18.432-2.56h213.504c28.672 0 42.496 14.336 42.496 42.496-0.512 28.672-14.848 43.008-43.008 43.008z"  horiz-adv-x="1024" />
      
      <glyph glyph-name="shouye-wodexiaoxi" unicode="&#59397;" d="M513.536-32.256c-228.352 0-413.696 185.856-413.696 413.696s185.856 413.696 413.696 413.696 413.696-185.344 413.696-413.696c0-83.456-24.576-163.84-71.68-232.448l27.648-82.432c8.704-26.624 2.048-55.808-17.408-75.776-19.456-19.968-48.64-27.648-75.264-19.456l-101.376 35.328c-54.784-25.6-115.2-38.912-175.616-38.912z m290.816 72.704zM513.536 712.704c-182.784 0-331.264-148.48-331.264-331.264s148.48-331.264 331.264-331.264c53.76 0 105.472 12.8 153.6 37.888 10.24 5.12 22.016 6.144 32.768 2.56l99.328-34.816-29.184 87.04c-4.096 12.8-2.048 27.136 6.656 38.4 44.544 58.368 68.096 127.488 68.096 200.192 0 182.784-148.48 331.264-331.264 331.264zM681.472 430.08H346.112c-23.04 0-41.472 18.432-41.472 41.472s18.432 41.472 41.472 41.472h335.36c23.04 0 41.472-18.432 41.472-41.472 0-22.528-18.432-41.472-41.472-41.472z m-105.984-206.848H346.112c-23.04 0-41.472 18.432-41.472 41.472s18.432 41.472 41.472 41.472h229.376c23.04 0 41.472-18.432 41.472-41.472s-18.432-41.472-41.472-41.472z"  horiz-adv-x="1024" />
      
      <glyph glyph-name="shouye-wodekebiao" unicode="&#59398;" d="M798.72-64H238.592c-73.728 0-133.632 59.904-133.632 133.632V673.28c0 87.04 70.656 157.696 157.696 157.696h559.616c24.576 0 45.056-19.968 45.056-45.056s-19.968-45.056-45.056-45.056H262.656c-37.376 0-68.096-30.72-68.096-68.096s30.72-68.096 68.096-68.096h539.136c73.728 0 133.632-59.904 133.632-133.632v-399.36c-0.512-74.752-61.44-135.68-136.704-135.68zM194.56 530.944v-461.312c0-24.064 19.456-44.032 44.032-44.032H798.72c25.6 0 46.592 20.992 46.592 46.592v399.36c0 24.064-19.456 44.032-44.032 44.032H262.144c-24.064 0-47.104 5.12-67.584 15.36zM496.64 195.072c-6.656 0-13.312 1.536-19.456 4.608-15.36 7.68-25.6 23.04-25.6 40.448V560.128c0 24.576 19.968 45.056 45.056 45.056h224.256c24.576 0 45.056-19.968 45.056-45.056v-320.512c0-17.408-9.728-32.768-25.6-40.448s-34.304-5.12-47.616 5.632l-83.968 67.072-84.48-67.072c-7.68-6.656-17.92-9.728-27.648-9.728z m111.616 179.2c9.728 0 19.968-3.072 28.16-9.728l39.424-31.232V515.584h-134.656v-182.272l38.912 31.232c8.704 6.656 18.432 9.728 28.16 9.728z"  horiz-adv-x="1024" />
      
      <glyph glyph-name="shouye-wodexiaoxi-kecheng" unicode="&#59399;" d="M757.248 853.504c88.576 0 160.256-71.68 160.256-160.256v-618.496c0-88.576-71.68-160.256-160.256-160.256H266.752c-88.576 0-160.256 71.68-160.256 160.256V693.248c0 88.576 71.68 159.744 160.256 159.744h490.496z m0-64h-170.496v-300.544c0-28.16-22.016-51.2-49.664-53.248h-3.584c-14.336 0-27.648 5.632-37.888 15.36L426.496 520.192 357.888 451.072c-19.968-19.456-51.712-20.992-72.704-2.56l-2.56 2.56c-10.24 10.24-15.872 23.552-15.872 37.888V789.504c-53.248 0-95.744-43.008-95.744-96.256v-618.496c0-53.248 43.008-96.256 96.256-96.256H757.76c53.248 0 96.256 43.008 96.256 96.256V693.248c-0.512 53.248-43.52 96.256-96.768 96.256z m-234.496 0H330.752v-274.944l59.392 59.392 3.584 3.072c20.992 16.384 51.2 14.848 70.656-4.608l58.368-58.368V789.504z"  horiz-adv-x="1024" />
      
      <glyph glyph-name="kuangke" unicode="&#59400;" d="M775.68 432.64v61.44c0 53.76-46.08 99.84-99.84 99.84H640V614.4c0 15.36-12.8 25.6-28.16 25.6-15.36 0-28.16-12.8-28.16-25.6v-20.48h-171.52V614.4c0 15.36-12.8 25.6-28.16 25.6-15.36 0-28.16-12.8-28.16-25.6v-20.48h-28.16c-56.32 0-99.84-43.52-99.84-99.84v-299.52c0-51.2 40.96-94.72 89.6-97.28h353.28c56.32 0 99.84 43.52 99.84 99.84v227.84 5.12c0 2.56 5.12 2.56 5.12 2.56z m-40.96 30.72v-271.36c0-33.28-25.6-58.88-58.88-58.88H330.24c-33.28 0-58.88 25.6-58.88 58.88V494.08c0 33.28 25.6 58.88 58.88 58.88H358.4v-30.72c0-15.36 12.8-25.6 28.16-25.6 15.36 0 28.16 12.8 28.16 25.6v30.72h171.52v-30.72c0-15.36 12.8-25.6 28.16-25.6 15.36 0 28.16 12.8 28.16 25.6v30.72h35.84c33.28 0 58.88-25.6 58.88-58.88v-30.72zM604.16 424.96c-7.68 7.68-20.48 7.68-28.16 0l-71.68-71.68-71.68 71.68c-7.68 7.68-20.48 7.68-28.16 0s-7.68-20.48 0-28.16l71.68-71.68-71.68-71.68c-7.68-7.68-7.68-20.48 0-28.16 7.68-7.68 20.48-7.68 28.16 0l71.68 71.68 71.68-71.68c7.68-7.68 20.48-7.68 28.16 0 7.68 7.68 7.68 20.48 0 28.16l-71.68 71.68 71.68 71.68c7.68 5.12 7.68 17.92 0 28.16z"  horiz-adv-x="1024" />
      
      <glyph glyph-name="banji1" unicode="&#59401;" d="M1466.368 137.216c59.392 32.256 98.816 96.768 98.816 167.936 0 109.568-92.16 200.192-203.776 200.192s-203.776-90.624-203.776-200.192c0-25.6 6.656-51.712 19.456-77.312 104.96-83.968 171.008-206.848 190.464-342.016h308.736c-19.456 116.224-98.304 212.992-209.92 251.392zM1676.288-114.176zM993.28 292.352c98.816 51.712 164.352 161.28 164.352 277.504 0 180.736-144.384 323.072-328.704 323.072S500.224 751.104 500.224 569.856c0-116.224 65.536-219.648 164.352-277.504-177.664-64.512-315.392-219.648-341.504-407.04h1011.712c-26.112 187.392-157.696 342.528-341.504 407.04z"  horiz-adv-x="1676" />
      
      <glyph glyph-name="kebiao-shaixuan-banji" unicode="&#59402;" d="M593.92 422.4c26.624 17.92 50.688 41.472 65.536 77.312 44.544 86.528 11.776 196.608-68.608 244.224s-184.832 14.848-226.304-74.752-11.776-199.68 74.752-247.296C329.216 397.824 200.704 317.44 200.704 97.28c0-59.392 71.68-59.392 315.904-59.392 241.152 0 315.904 0 315.904 59.392 0 224.256-128.512 301.568-238.592 325.12zM778.752 452.096c-9.216 3.072-11.264 14.848-4.096 20.992 53.76 43.52 69.632 121.856 39.424 186.368-21.504 46.08-64 73.728-108.544 77.824-10.24 1.024-16.896-10.752-10.752-19.456 7.68-9.728 14.336-20.992 19.968-32.768 37.888-81.408 16.896-179.712-52.736-232.96-7.68-6.144-5.632-18.432 4.096-20.992 94.208-27.648 193.536-100.352 209.92-267.776 0.512-6.656 6.656-11.776 13.824-10.752 41.984 6.144 57.344 17.92 57.344 43.008 0 161.792-85.504 230.912-168.448 256.512z"  horiz-adv-x="1024" />
      
      <glyph glyph-name="shouye-kechengyuyue" unicode="&#59403;" d="M691.2 581.12c-10.24 0-17.92-7.68-17.92-17.92s7.68-17.92 17.92-17.92c20.48 0 20.48-23.04 20.48-25.6v-284.16c0-17.92-5.12-38.4-15.36-38.4H353.28c-12.8 0-28.16 20.48-28.16 38.4v281.6c0 15.36 10.24 25.6 23.04 25.6 10.24 0 17.92 7.68 17.92 17.92s-7.68 17.92-17.92 17.92c-35.84 0-61.44-28.16-61.44-64V230.4c0-35.84 28.16-76.8 66.56-76.8h340.48c35.84 0 53.76 38.4 53.76 76.8V517.12c2.56 35.84-23.04 64-56.32 64zM458.24 552.96h122.88c10.24 0 17.92 7.68 17.92 17.92 0 5.12-2.56 10.24-5.12 12.8-2.56 2.56-7.68 5.12-12.8 5.12h-122.88c-10.24 0-17.92-7.68-17.92-17.92 0-10.24 7.68-17.92 17.92-17.92zM401.92 517.12c10.24 0 20.48 10.24 17.92 20.48v53.76c0 7.68-2.56 12.8-10.24 17.92-5.12 2.56-12.8 2.56-20.48 0-5.12-2.56-10.24-10.24-10.24-17.92V537.6c5.12-10.24 12.8-20.48 23.04-20.48zM634.88 517.12c10.24 0 20.48 10.24 17.92 20.48v53.76c0 7.68-2.56 12.8-10.24 17.92-5.12 2.56-12.8 2.56-20.48 0-5.12-2.56-10.24-10.24-10.24-17.92V537.6c5.12-10.24 12.8-20.48 23.04-20.48zM486.4 453.12c-12.8 0-17.92-5.12-17.92-17.92v-99.84c0-12.8 5.12-17.92 17.92-17.92h130.56c12.8 0 17.92 5.12 17.92 17.92 0 12.8-5.12 17.92-17.92 17.92h-110.08V435.2c0 12.8-7.68 17.92-20.48 17.92z"  horiz-adv-x="1024" />
      
      <glyph glyph-name="banji-danchuang-didian" unicode="&#59350;" d="M512 663.04c-84.992 0-154.624-69.12-154.624-153.6s69.12-153.6 154.624-153.6 154.112 69.12 154.112 153.6-69.12 153.6-154.112 153.6z m0-245.76c-51.2 0-92.672 41.472-92.672 92.16s41.472 92.16 92.672 92.16c51.2 0 92.672-41.472 92.672-92.16 0-51.2-41.472-92.16-92.672-92.16zM752.128 748.544C619.52 880.64 404.48 880.64 271.36 748.544c-132.608-132.096-132.608-346.112 0-478.208v-0.512l218.112-217.088c5.632-5.632 13.824-9.216 22.016-9.216 8.192 0 15.872 3.072 22.016 9.216l218.112 217.088c133.632 132.608 133.12 347.136 0.512 478.72z m-43.52-434.688L512 118.272l-196.608 195.584c-108.544 108.032-108.544 283.136 0 391.168 108.544 108.032 284.672 108.032 393.216 0 108.544-108.032 108.544-283.136 0-391.168z"  horiz-adv-x="1024" />
      
      <glyph glyph-name="banji-danchuang-shijian" unicode="&#59351;" d="M512 810.496C276.48 810.496 85.504 619.52 85.504 384S276.48-42.496 512-42.496s426.496 190.976 426.496 426.496S747.52 810.496 512 810.496z m0-768c-188.416 0-341.504 152.576-341.504 341.504 0 188.416 152.576 341.504 341.504 341.504 188.416 0 341.504-153.088 341.504-341.504 0-188.416-153.088-341.504-341.504-341.504zM725.504 384h-170.496V554.496c0 28.672-14.336 42.496-42.496 42.496s-42.496-14.336-42.496-42.496v-213.504c0-5.12 0.512-10.24 1.536-14.336 3.072-12.8 10.752-21.504 22.528-25.6 5.12-1.536 11.776-2.56 18.432-2.56h213.504c28.672 0 42.496 14.336 42.496 42.496-0.512 28.672-14.848 43.008-43.008 43.008z"  horiz-adv-x="1024" />
      
      <glyph glyph-name="caozuo-chakan" unicode="&#59352;" d="M512 268.8c-64 0-115.2 51.2-115.2 115.2s51.2 115.2 115.2 115.2 115.2-51.2 115.2-115.2-51.2-115.2-115.2-115.2z m0 33.28c46.08 0 81.92 35.84 81.92 81.92 0 46.08-35.84 81.92-81.92 81.92-46.08 0-81.92-35.84-81.92-81.92 0-46.08 35.84-81.92 81.92-81.92z m0 0M512 202.24c-97.28 0-184.32 58.88-263.68 174.08-2.56 5.12-2.56 12.8 0 17.92 76.8 115.2 163.84 174.08 263.68 174.08 97.28 0 184.32-58.88 263.68-174.08 2.56-5.12 2.56-12.8 0-17.92-79.36-115.2-166.4-174.08-263.68-174.08z m0 33.28c81.92 0 158.72 48.64 227.84 148.48-69.12 99.84-145.92 148.48-227.84 148.48s-158.72-48.64-227.84-148.48c69.12-99.84 145.92-148.48 227.84-148.48z m0 0"  horiz-adv-x="1024" />
      
      <glyph glyph-name="caozuo-daochu" unicode="&#59353;" d="M286.72 249.856L492.032 107.52c0.512 0 0.512-0.512 1.024-0.512 12.288-8.704 28.672-9.216 41.472 0l203.264 142.336c16.384 11.264 19.968 33.792 8.704 50.176-11.264 16.384-33.792 20.48-50.176 8.704l-148.48-103.936V710.144c0 19.968-15.872 35.84-35.84 35.84s-35.84-15.872-35.84-35.84v-504.832l-148.992 103.424c-16.384 11.264-38.912 7.68-50.176-8.704s-6.656-38.912 9.728-50.176zM924.16 256c-19.968 0-35.84-15.872-35.84-35.84v-189.44c0-12.8-6.656-22.528-14.848-22.528h-721.92c-8.192 0-14.848 10.24-14.848 22.528v189.44c0 19.968-15.872 35.84-35.84 35.84s-35.84-15.872-35.84-35.84v-197.12c0-48.128 38.912-87.04 87.04-87.04h721.92c48.128 0 87.04 38.912 87.04 87.04V220.16c-1.024 19.968-16.896 35.84-36.864 35.84z"  horiz-adv-x="1024" />
      
      <glyph glyph-name="banji-danchuang-kemu" unicode="&#59354;" d="M844.8 845.312H179.2c-36.352 0-65.536-29.184-65.536-65.536v-792.064c0-36.352 29.184-65.536 65.536-65.536h665.6c36.352 0 65.536 29.184 65.536 65.536V779.776c0 36.352-29.184 65.536-65.536 65.536z m-340.992-71.68v-333.824L419.84 491.52c-5.12 3.072-10.752 4.608-16.384 4.608s-11.264-1.536-16.384-4.608L304.128 439.808V773.632h199.68z m-324.608 10.24h63.488v-399.36c0-11.264 6.144-21.504 15.872-26.624 9.728-5.632 21.504-5.12 31.232 0.512l114.176 70.656 114.176-70.656c5.12-3.072 10.752-4.608 16.384-4.608 5.12 0 10.24 1.536 14.848 4.096 9.728 5.632 15.872 15.872 15.872 26.624v399.36H844.8c2.048 0 4.096-2.048 4.096-4.096v-639.488H175.104V779.776c0 2.56 2.048 4.096 4.096 4.096z m665.6-799.744H179.2c-2.048 0-4.096 2.048-4.096 4.096v91.136h673.792v-91.136c0-2.56-2.048-4.096-4.096-4.096z"  horiz-adv-x="1024" />
      
      <glyph glyph-name="caozuo-tongguo" unicode="&#59355;" d="M512 861.184C248.832 861.184 34.816 647.168 34.816 384s214.016-477.184 477.184-477.184 477.184 214.016 477.184 477.184S775.168 861.184 512 861.184z m0-878.592c-221.184 0-401.408 180.224-401.408 401.408S290.816 785.408 512 785.408s401.408-180.224 401.408-401.408-180.224-401.408-401.408-401.408zM756.736 608.256l-307.2-315.392-182.272 187.392-64.512-66.56 246.784-253.952 371.712 381.952z"  horiz-adv-x="1024" />
      
      <glyph glyph-name="caozuo-jujue" unicode="&#59356;" d="M512 861.184C248.832 861.184 34.816 647.168 34.816 384s214.016-477.184 477.184-477.184 477.184 214.016 477.184 477.184S775.168 861.184 512 861.184z m0-878.592c-221.184 0-401.408 180.224-401.408 401.408S290.816 785.408 512 785.408s401.408-180.224 401.408-401.408-180.224-401.408-401.408-401.408zM691.712 631.296L512 451.584 332.288 631.296 264.704 563.712 444.416 384l-179.712-179.712 67.584-67.584 179.712 179.712 179.712-179.712 67.584 67.584-179.712 179.712 179.712 179.712z"  horiz-adv-x="1024" />
      
      <glyph glyph-name="fanhui" unicode="&#59357;" d="M993.792 443.904c-19.456 46.08-47.104 87.04-82.432 122.368-35.328 35.328-76.288 62.976-122.368 82.432-47.616 19.968-97.792 30.208-150.016 30.208H263.168L443.392 859.136H239.616L0 619.008l239.616-239.616h203.776L263.168 559.616h375.808c146.432 0 265.728-119.296 265.728-265.728 0-146.432-119.296-265.728-265.728-265.728h-501.76c-32.768 0-59.392-26.624-59.392-59.392 0-32.768 26.624-59.392 59.392-59.392h502.272c51.712 0 102.4 10.24 150.016 30.208 46.08 19.456 87.04 47.104 122.368 82.432 35.328 35.328 62.976 76.288 82.432 122.368 19.968 47.616 30.208 97.792 30.208 150.016s-10.752 101.888-30.72 149.504z"  horiz-adv-x="1024" />
      
      <glyph glyph-name="kaoqinshuju-keshi-chidao" unicode="&#59358;" d="M512 802.816c-230.912 0-418.816-187.904-418.816-418.816s187.904-418.816 418.816-418.816 418.816 187.904 418.816 418.816-187.904 418.816-418.816 418.816z m0-768c-192.512 0-349.184 156.672-349.184 349.184 0 93.184 36.352 180.736 102.4 246.784s153.6 102.4 246.784 102.4c93.184 0 180.736-36.352 246.784-102.4 66.048-66.048 102.4-153.6 102.4-246.784 0-192.512-156.672-349.184-349.184-349.184zM725.504 376.32h-178.176V554.496c0 24.064-10.752 34.816-34.816 34.816-24.064 0-34.816-10.752-34.816-34.816v-213.504c0-4.608 0.512-9.216 1.536-12.8 2.56-10.24 8.192-16.896 17.408-19.968 4.608-1.536 10.24-2.048 16.384-2.048h213.504c24.064 0 34.816 10.752 34.816 34.816-1.024 24.576-11.776 35.328-35.84 35.328z"  horiz-adv-x="1024" />
      
      <glyph glyph-name="daohang-kaoqincelve" unicode="&#59359;" d="M405.504 341.504H234.496C104.96 341.504 0 236.544 0 106.496 0-23.04 104.96-128 234.496-128c129.536 0 234.496 104.96 234.496 234.496v170.496c0.512 35.84-28.16 64.512-63.488 64.512zM618.496 426.496h170.496c129.536 0 234.496 104.96 234.496 234.496C1024 791.04 919.04 896 789.504 896c-129.536 0-234.496-104.96-234.496-234.496v-170.496c-0.512-35.84 28.16-64.512 63.488-64.512zM234.496 896C104.96 896 0 791.04 0 661.504c0-129.536 104.96-234.496 234.496-234.496h170.496c35.328 0 64 28.672 64 64V661.504C469.504 791.04 364.032 896 234.496 896zM1006.08 142.848h-21.504c-9.728 0-20.48 7.68-23.552 17.408l-12.288 30.208c-4.608 8.704-2.56 21.504 4.096 28.672l15.36 15.36c7.168 7.168 7.168 18.432 0 25.6l-25.6 25.6c-7.168 7.168-18.432 7.168-25.6 0l-15.36-15.36c-7.168-7.168-19.968-8.704-28.672-4.096l-30.208 12.288c-9.216 3.072-17.408 13.312-17.408 23.552v21.504c0 9.728-8.192 17.92-17.92 17.92h-35.84c-9.728 0-17.92-8.192-17.92-17.92v-21.504c0-10.24-7.68-20.48-17.408-23.552l-30.208-12.288c-8.704-4.608-21.504-2.56-28.672 4.096l-15.36 15.36c-7.168 7.168-18.432 7.168-25.6 0l-25.6-25.6c-7.168-7.168-7.168-18.432 0-25.6l15.36-15.36c7.168-7.168 9.216-19.968 4.096-28.672l-12.288-30.208c-3.072-9.728-13.312-17.408-23.552-17.408h-21.504c-10.24 0-17.92-8.192-17.92-17.92v-35.84c0-9.728 8.192-17.92 17.92-17.92h21.504c9.728 0 20.48-7.68 23.552-17.408l12.288-30.208c4.608-8.704 2.56-21.504-4.096-28.672l-15.36-15.36c-7.168-7.168-7.168-18.432 0-25.6l25.6-25.6c7.168-7.168 18.432-7.168 25.6 0l15.36 15.36c7.168 7.168 19.968 8.704 28.672 4.096l30.208-12.288c9.728-3.072 17.408-13.312 17.408-23.552v-21.504c0-9.728 8.192-17.92 17.92-17.92h35.84c9.728 0 17.92 8.192 17.92 17.92v21.504c0 9.728 7.68 20.48 17.408 23.552l30.208 12.288c8.704 4.608 21.504 3.072 28.672-4.096l15.36-15.36c7.168-7.168 18.432-7.168 25.6 0l25.6 25.6c7.168 7.168 7.168 18.432 0 25.6l-15.36 15.36c-7.168 7.168-8.704 19.968-4.096 28.672l12.288 30.208c3.072 9.216 13.312 17.408 23.552 17.408h21.504c9.728 0 17.92 8.192 17.92 17.92v35.84c0 9.728-8.192 17.92-17.92 17.92z m-136.192-34.816c0-45.056-36.864-81.92-81.92-81.92-45.568 0-81.92 36.864-81.92 81.92 0 45.568 36.864 81.92 81.92 81.92s81.92-36.352 81.92-81.92z"  horiz-adv-x="1024" />
      
      <glyph glyph-name="qingjiaguanli-danchuang-zhuangtai-yijujue" unicode="&#59360;" d="M565.248 381.44L716.8 532.992c17.92 17.92 17.92 35.328 0 53.248s-35.328 17.92-53.248 0L512 434.688 364.032 582.656c-17.92 17.92-35.328 17.92-53.248 0s-17.92-35.328 0-53.248l147.968-147.968-144.896-144.896c-17.92-17.92-17.92-35.328 0-53.248s35.328-17.92 53.248 0l144.896 144.896 147.968-147.968c17.92-17.92 35.328-17.92 53.248 0s17.92 35.328 0 53.248l-147.968 147.968z"  horiz-adv-x="1024" />
      
      <glyph glyph-name="qingjiaguanli-danchuang-zhuangtai-daishenhe" unicode="&#59361;" d="M894.976-4.096h-56.832V93.696v7.68 3.072c-3.584 115.2-126.464 215.552-219.136 271.872 92.16 55.808 214.528 155.136 219.136 269.824 0 1.536 0.512 3.072 0.512 4.608V766.464h56.832c22.528 0 40.96 18.432 40.96 40.96s-18.432 40.96-40.96 40.96H124.928c-22.528 0-40.96-18.432-40.96-40.96s18.432-40.96 40.96-40.96h53.248V650.24c0-1.536 0-3.072 0.512-4.608 4.608-114.176 137.216-214.016 228.864-269.824-91.648-55.808-224.256-155.136-228.864-269.312 0-2.048-0.512-3.584-0.512-5.632v-105.472H124.928c-22.528 0-40.96-18.432-40.96-40.96s18.432-40.96 40.96-40.96h770.048c22.528 0 40.96 18.432 40.96 40.96 0.512 23.04-17.92 41.472-40.96 41.472z"  horiz-adv-x="1024" />
      
      <glyph glyph-name="banji-danchuang-jiaoshi" unicode="&#59362;" d="M937.984 27.136c-20.992 176.64-156.16 318.464-330.24 356.864 75.776 35.84 128 113.152 128 202.752 0 123.904-100.352 224.256-223.744 224.256-39.424 0-77.824-10.24-112.128-30.208-69.12-39.936-112.128-114.176-112.128-194.048 0-89.6 52.224-166.4 128-202.752-174.08-38.4-309.248-180.224-330.24-356.864-4.608-37.376 25.6-70.144 63.488-70.144h724.992c38.912 0 68.608 32.768 64 70.144zM330.752 586.752c0 63.488 33.28 122.368 87.04 155.136l3.584 2.048c56.32 32.256 125.44 32.256 181.248 0 56.32-32.256 90.624-92.16 90.624-157.184 0-100.352-81.408-181.248-181.248-181.248S330.752 486.4 330.752 586.752z m543.744-587.264H149.504c-12.8 0-22.528 10.752-21.504 22.528 20.992 173.056 163.84 309.248 342.016 327.68l-6.656-6.656-0.512-0.512c-5.12-5.632-5.12-14.848 0.512-19.968l29.696-28.672-34.816-243.2L512 0l53.248 50.688-34.304 243.2 29.696 28.672 0.512 0.512c5.12 5.632 5.12 14.848-0.512 19.968l-6.656 6.656c178.176-18.432 321.024-154.624 342.016-327.68 1.536-11.776-8.704-22.528-21.504-22.528z"  horiz-adv-x="1024" />
      
      <glyph glyph-name="kaoqinshuju-keshi-zongchuqin" unicode="&#59363;" d="M256 524.8c-20.992 0-38.4-17.408-38.4-38.4v-409.6c0-20.992 17.408-38.4 38.4-38.4s38.4 17.408 38.4 38.4V486.4c0 20.992-17.408 38.4-38.4 38.4zM768 320c-20.992 0-38.4-17.408-38.4-38.4v-204.8c0-20.992 17.408-38.4 38.4-38.4s38.4 17.408 38.4 38.4v204.8c0 20.992-17.408 38.4-38.4 38.4zM257.024 678.4h-0.512c-20.992 0-37.888-17.408-37.888-38.4s17.408-38.4 38.4-38.4 38.4 17.408 38.4 38.4-17.408 38.4-38.4 38.4zM473.6 640v-512c0-20.992 17.408-38.4 38.4-38.4s38.4 17.408 38.4 38.4V640c0 20.992-17.408 38.4-38.4 38.4s-38.4-17.408-38.4-38.4z"  horiz-adv-x="1024" />
      
      <glyph glyph-name="kaoqinshuju-keshi-qingjia" unicode="&#59364;" d="M512 112.64c-8.192 0-16.384 2.56-23.04 7.168L411.136 174.08h-1.024l-78.336-45.568c-12.288-7.168-28.16-7.168-40.448 0-12.8 7.168-20.48 20.992-19.968 35.328V614.4c0 22.528 17.92 40.96 40.448 40.96h400.384c22.528 0 40.448-18.432 40.448-40.96v-449.536c0-14.848-7.68-28.16-20.48-35.328-12.288-7.168-28.16-7.168-40.448 0l-76.8 45.056h-1.024l-79.872-54.784c-6.144-4.608-13.824-7.168-22.016-7.168z m-101.376 101.888c8.192 0 16.384-2.56 23.04-7.168l77.824-54.272h1.024l79.872 54.784c12.8 8.704 29.696 9.216 43.008 1.536l76.8-45.056c0.512 0 1.024 0 1.024 0.512V614.4c0 0.512-0.512 1.024-1.024 1.024H311.808c-0.512 0-1.024-0.512-1.024-1.024v-450.048c0-0.512 0-0.512 0.512-0.512h1.024l78.336 45.568c6.144 3.584 12.8 5.12 19.968 5.12z m210.432 149.504H475.648V530.432h39.424v-126.464h105.984v-39.936z"  horiz-adv-x="1024" />
      
      <glyph glyph-name="kaoqinshuju-keshi-kuangke" unicode="&#59365;" d="M775.68 432.64v61.44c0 53.76-46.08 99.84-99.84 99.84H640V614.4c0 15.36-12.8 25.6-28.16 25.6-15.36 0-28.16-12.8-28.16-25.6v-20.48h-171.52V614.4c0 15.36-12.8 25.6-28.16 25.6-15.36 0-28.16-12.8-28.16-25.6v-20.48h-28.16c-56.32 0-99.84-43.52-99.84-99.84v-299.52c0-51.2 40.96-94.72 89.6-97.28h353.28c56.32 0 99.84 43.52 99.84 99.84v227.84 5.12c0 2.56 5.12 2.56 5.12 2.56z m-40.96 30.72v-271.36c0-33.28-25.6-58.88-58.88-58.88H330.24c-33.28 0-58.88 25.6-58.88 58.88V494.08c0 33.28 25.6 58.88 58.88 58.88H358.4v-30.72c0-15.36 12.8-25.6 28.16-25.6 15.36 0 28.16 12.8 28.16 25.6v30.72h171.52v-30.72c0-15.36 12.8-25.6 28.16-25.6 15.36 0 28.16 12.8 28.16 25.6v30.72h35.84c33.28 0 58.88-25.6 58.88-58.88v-30.72zM604.16 424.96c-7.68 7.68-20.48 7.68-28.16 0l-71.68-71.68-71.68 71.68c-7.68 7.68-20.48 7.68-28.16 0s-7.68-20.48 0-28.16l71.68-71.68-71.68-71.68c-7.68-7.68-7.68-20.48 0-28.16 7.68-7.68 20.48-7.68 28.16 0l71.68 71.68 71.68-71.68c7.68-7.68 20.48-7.68 28.16 0 7.68 7.68 7.68 20.48 0 28.16l-71.68 71.68 71.68 71.68c7.68 5.12 7.68 17.92 0 28.16z"  horiz-adv-x="1024" />
      
      <glyph glyph-name="daohang-kaoqinshuju" unicode="&#59366;" d="M991.76012-63.52024h-32.23988v383.808096c0 36.333833-28.657671 63.968016-64.47976 63.968016h-126.912544c-36.333833 0-64.47976-28.657671-64.47976-63.968016v-383.808096H639.68016V831.52024c0 35.822089-28.657671 64.47976-64.47976 64.47976H448.287856C411.954023 896 383.808096 867.342329 383.808096 831.52024v-895.04048H319.84008V576.671664c0 35.310345-29.169415 63.456272-64.47976 63.456272H128.447776c-36.333833 0-64.47976-28.657671-64.47976-63.456272v-640.191904H31.728136c-17.3993 0-31.728136-14.328836-31.728136-32.23988 0-16.887556 14.328836-32.23988 31.728136-32.23988h960.031984c17.3993 0 31.728136 14.328836 31.728136 32.23988 0 17.3993-14.328836 32.23988-31.728136 32.23988z"  horiz-adv-x="1024" />
      
      <glyph glyph-name="daohang-qingjiaguanli" unicode="&#59367;" d="M712.192 655.36H311.808c-22.528 0-40.448-18.432-40.448-40.96v-450.048c0-14.336 7.68-28.16 19.968-35.328 12.288-7.168 27.648-7.68 40.448 0l78.336 45.568h1.024l77.824-54.272c6.656-4.608 14.848-7.168 23.04-7.168s15.872 2.56 22.528 7.168l79.872 54.784h1.024l76.8-45.056c12.288-7.68 28.16-7.68 40.448 0 12.8 7.168 20.48 20.992 20.48 35.328V614.4c-0.512 22.528-18.432 40.96-40.96 40.96z m-91.136-291.328H475.648V530.432h39.424v-126.464h105.984v-39.936z"  horiz-adv-x="1024" />
      
      <glyph glyph-name="qingjiaguanli-danchuang-zhuangtai-yitongguo" unicode="&#59368;" d="M794.624 482.304l-328.192-336.384c-7.68-8.192-18.432-12.8-29.696-12.8-11.264 0-22.016 4.608-29.696 12.288L230.4 322.048c-16.384 16.384-16.384 43.008 0 59.392 16.384 16.384 43.008 16.384 59.392 0l146.432-146.432 298.496 305.664c16.384 16.384 43.008 16.896 59.392 0.512 16.384-15.872 16.384-42.496 0.512-58.88z"  horiz-adv-x="1024" />
      
      <glyph glyph-name="qingjiaguanli-danchuang-xuehao" unicode="&#59369;" d="M436.736 550.912H265.728c-16.384 0-29.184-13.824-29.184-31.232 0-17.408 13.312-31.232 29.184-31.232h171.008c16.384 0 29.184 13.824 29.184 31.232 0 17.408-13.312 31.232-29.184 31.232z m0-133.632H265.728c-16.384 0-29.184-13.824-29.184-31.232 0-17.408 13.312-31.232 29.184-31.232h171.008c16.384 0 29.184 13.824 29.184 31.232 0 17.408-13.312 31.232-29.184 31.232z m0-133.632H265.728c-16.384 0-29.184-13.824-29.184-31.232 0-17.408 13.312-31.232 29.184-31.232h171.008c16.384 0 29.184 13.824 29.184 31.232 0 17.408-13.312 31.232-29.184 31.232zM870.912 745.984H153.088c-47.616 0-86.016-38.912-86.016-86.016v-551.936c0-47.616 38.912-86.016 86.016-86.016H870.4c47.616 0 86.016 38.912 86.016 86.016V659.968c0.512 47.616-37.888 86.016-85.504 86.016z m24.064-637.952c0-13.312-10.752-24.064-24.064-24.064H153.088c-13.312 0-24.064 10.752-24.064 24.064V659.968c0 13.312 10.752 24.064 24.064 24.064H870.4c13.312 0 24.064-10.752 24.064-24.064v-551.936zM724.48 371.712c18.432 18.944 29.696 44.544 29.696 73.216 0 58.368-47.616 105.984-105.984 105.984s-105.984-47.616-105.984-105.984c0-29.184 11.776-55.296 30.72-74.24-40.448-25.6-67.584-70.656-67.584-122.368 0-16.896 13.824-31.232 31.232-31.232s31.232 13.824 31.232 31.232c0 45.568 36.864 82.432 82.432 82.432s82.432-36.864 82.432-82.432c0-16.896 13.824-31.232 31.232-31.232 16.896 0 31.232 13.824 31.232 31.232-1.024 52.224-29.184 98.304-70.656 123.392z m-76.288 117.248c24.064 0 44.032-19.456 44.032-44.032s-19.456-44.032-44.032-44.032c-24.064 0-44.032 19.456-44.032 44.032s19.968 44.032 44.032 44.032z"  horiz-adv-x="1024" />
      
      <glyph glyph-name="qingjiaguanli-shijianshaixuan" unicode="&#59370;" d="M499.2 209.92h28.16c15.36 0 28.16 12.8 28.16 28.16 0 15.36-12.8 28.16-28.16 28.16h-28.16c-15.36 0-28.16-12.8-28.16-28.16-2.56-15.36 10.24-28.16 28.16-28.16z m302.08 243.2v64c0 58.88-48.64 104.96-107.52 104.96h-38.4v23.04c0 15.36-12.8 28.16-28.16 28.16-15.36 0-28.16-12.8-28.16-28.16v-23.04h-181.76v23.04c0 15.36-12.8 28.16-28.16 28.16-15.36 0-28.16-12.8-28.16-28.16v-23.04h-30.72c-58.88 0-107.52-46.08-107.52-104.96v-317.44c0-53.76 43.52-99.84 97.28-104.96h373.76c58.88 0 107.52 46.08 107.52 104.96v243.2 5.12 5.12z m-43.52-253.44c0-33.28-28.16-61.44-64-61.44H330.24c-35.84 0-64 28.16-64 61.44v220.16H757.76v-220.16z m0 276.48H268.8h-2.56v40.96c0 33.28 28.16 61.44 64 61.44h30.72v-33.28c0-15.36 12.8-28.16 28.16-28.16 15.36 0 28.16 12.8 28.16 28.16v33.28h181.76v-33.28c0-15.36 12.8-28.16 28.16-28.16 15.36 0 28.16 12.8 28.16 28.16v33.28h38.4c35.84 0 64-28.16 64-61.44v-40.96z m-389.12-176.64h28.16c15.36 0 28.16 12.8 28.16 28.16 0 15.36-12.8 28.16-28.16 28.16h-28.16c-15.36 0-28.16-12.8-28.16-28.16 0-15.36 12.8-28.16 28.16-28.16z m130.56 0h28.16c15.36 0 28.16 12.8 28.16 28.16 0 15.36-12.8 28.16-28.16 28.16h-28.16c-15.36 0-28.16-12.8-28.16-28.16-2.56-15.36 10.24-28.16 28.16-28.16z m128 0h28.16c15.36 0 28.16 12.8 28.16 28.16 0 15.36-12.8 28.16-28.16 28.16h-28.16c-15.36 0-28.16-12.8-28.16-28.16-2.56-15.36 12.8-28.16 28.16-28.16z m-258.56-89.6h28.16c15.36 0 28.16 12.8 28.16 28.16 0 15.36-12.8 28.16-28.16 28.16h-28.16c-15.36 0-28.16-12.8-28.16-28.16 0-15.36 12.8-28.16 28.16-28.16z m258.56 0h28.16c15.36 0 28.16 12.8 28.16 28.16 0 15.36-12.8 28.16-28.16 28.16h-28.16c-15.36 0-28.16-12.8-28.16-28.16-2.56-15.36 12.8-28.16 28.16-28.16z m0 0"  horiz-adv-x="1024" />
      
      <glyph glyph-name="qingjiaguanli-danchuang-banji" unicode="&#59371;" d="M452.096 724.992c-14.848 6.656-30.208 11.776-46.08 14.336-8.704 2.048-17.92 3.072-27.136 3.072h-8.192c-9.216 0-18.432-1.024-27.648-3.072-19.968-3.584-38.912-10.24-56.32-19.456-56.32-30.208-86.528-83.968-86.528-156.16v-8.192c0-6.656 0.512-15.872 1.024-25.6 1.536-17.92 3.584-35.328 7.68-51.2 7.168-31.232 18.432-55.808 35.328-73.216 2.048-2.048 4.608-5.632 7.168-9.216 3.072-4.608 5.12-8.704 5.12-10.24 0-3.072 0-2.56-1.536-3.584-5.12-4.608-16.896-11.264-39.936-23.04-119.808-58.88-159.744-92.16-160.256-149.504l-3.584-53.76c-1.536-23.04 15.872-43.008 38.4-44.544 3.072 0 49.664-0.512 115.2-0.512 0 18.944 0.512 36.352 2.048 51.2-34.816 0-69.12 0-103.936 0.512l3.072 44.032v1.536c0 29.696 29.184 54.272 131.584 104.448C292.864 339.968 307.2 353.28 307.2 386.048c0 2.048 0 4.096-0.512 6.144-1.536 10.24-6.144 21.504-13.312 32.256-4.096 6.144-8.192 11.776-13.312 16.896-9.728 9.728-16.896 26.112-22.528 49.152-3.072 14.336-5.12 28.672-6.144 43.52-0.512 7.168-1.024 14.336-1.024 21.504v8.192c0 54.272 20.48 90.624 59.392 111.104 12.8 6.656 27.136 11.776 41.472 14.336 6.144 1.024 12.288 2.048 18.432 2.048h8.192c4.096 0 10.752-0.512 18.432-2.048 6.144-1.024 11.776-2.56 17.92-4.608 10.752 15.36 23.552 29.184 37.888 40.448z m354.304-428.032c-43.52 21.504-47.616 25.088-47.616 32.768 0.512 2.56 2.56 7.168 6.144 13.312 3.072 4.608 6.144 8.704 8.704 11.264 18.432 18.944 30.72 46.08 38.4 80.384 4.096 18.944 7.168 37.888 8.192 56.832 1.024 10.752 1.024 20.992 1.024 28.16V528.384c0 80.384-33.28 139.776-94.72 172.544-19.456 10.24-40.448 17.408-61.952 21.504-9.728 2.048-19.968 3.072-29.696 3.072h-9.216c-8.192 0-18.944-1.024-30.208-3.072-21.504-4.096-42.496-11.264-61.952-21.504-61.44-32.768-94.72-92.16-94.72-172.032v-9.216c0-7.68 0.512-17.408 1.024-28.16 1.536-19.968 4.096-38.912 8.192-56.832 7.68-34.304 20.48-61.44 38.4-80.384 2.048-2.048 5.632-6.656 8.704-11.264 4.096-5.632 6.144-10.752 6.144-13.312 0-7.68-4.096-11.264-47.616-32.768-132.096-65.536-176.128-101.888-176.64-164.352l-4.096-59.392c-1.536-24.064 16.384-45.056 40.448-46.592 12.8-1.024 627.2-1.024 637.952 0 24.064 2.56 40.96 24.064 38.4 48.128l-6.656 59.392c-1.024 61.44-45.568 97.792-176.64 162.816z m151.04-165.376l25.6 1.536v2.048l-25.6-1.536-17.92-2.048h17.92z m-25.6-1.024l5.632-53.248c-67.072-0.512-545.792-0.512-612.864 0l3.584 52.224c0 36.864 33.28 64.512 148.48 121.344 60.416 29.696 76.288 44.544 76.288 78.848 0 2.048 0 4.096-0.512 6.144-1.536 11.264-6.656 23.04-14.336 34.816-4.096 6.656-9.216 12.8-14.336 18.432-11.264 11.264-19.456 30.208-25.6 56.32-3.584 16.384-6.144 32.768-7.168 49.152-0.512 8.192-1.024 16.384-1.024 24.576v9.216c0 61.44 23.552 103.424 67.584 126.976 14.848 7.68 30.72 13.312 47.104 16.384 8.704 1.536 16.384 2.56 20.992 2.56h8.704c4.608 0 12.288-1.024 20.992-2.56 16.896-3.072 32.768-8.704 47.104-16.384 44.032-24.064 67.584-65.536 67.584-126.976v-9.216c0-6.144-0.512-14.848-1.024-24.576-1.536-17.408-3.584-34.304-7.168-49.152-6.144-26.112-14.848-45.056-25.6-56.32-5.12-5.632-10.24-11.776-14.336-18.432-7.68-11.776-12.8-23.552-14.336-34.816-0.512-2.048-0.512-4.096-0.512-6.144 0-34.816 15.872-49.152 76.288-78.848 115.2-56.832 148.48-84.48 148.48-119.296h7.168l-7.168-1.024z"  horiz-adv-x="1024" />
      
      <glyph glyph-name="paidanjindu-chenggong" unicode="&#59287;" d="M510.464 829.44c-246.272 0-447.488-201.728-447.488-448.512s201.216-448.512 447.488-448.512c246.272 0 447.488 201.728 447.488 448.512S756.736 829.44 510.464 829.44z m144.384-792.064c-92.16-38.912-196.608-38.912-288.768 0-89.6 38.4-160.768 109.568-198.656 199.168-38.912 92.672-38.912 197.12 0 289.792C205.312 615.936 276.48 687.104 366.08 725.504c92.16 39.424 196.608 39.424 288.768 0 89.6-38.4 160.768-109.568 198.656-199.168 38.912-92.672 38.912-197.12 0-289.792-37.888-89.6-109.056-160.768-198.656-199.168zM714.24 561.152L435.2 281.6 306.688 410.112c-17.92 17.92-35.328 17.92-53.248 0s-17.92-35.328 0-53.248l147.968-147.968c2.048-2.56 4.096-5.12 6.656-7.68 17.92-17.92 35.328-17.92 53.248 0l306.176 306.176c17.92 17.92 17.92 35.328 0 53.248s-35.328 17.92-53.248 0.512z"  horiz-adv-x="1024" />
      
      <glyph glyph-name="paidan-bumen" unicode="&#59292;" d="M941.056 110.08s-53.248 0.512-41.472 0.512h12.8-12.8c-22.016 0-28.672-0.512-30.208-0.512 23.552 189.44-264.192 261.12-264.192 290.816 0 23.04 6.656 26.624 28.16 48.64 22.016 22.528 38.4 61.952 42.496 115.2 10.752 146.944-86.528 175.616-6.144 175.616s135.68-66.048 135.68-147.456c0-53.248-39.936-113.664-48.64-128-8.704-14.848-9.728-47.104-10.24-50.688-1.024-58.88 212.992-78.848 212.992-203.776h0.512v-79.872c0.512-11.776-8.192-20.48-18.944-20.48z m-417.28 264.192c-1.536-72.192 266.24-96.768 266.24-250.88h1.024v-98.304c0-13.312-10.752-24.064-24.064-24.064H88.576c-13.312 0-24.064 10.752-24.064 24.064v98.304h1.024c0.512 165.888 264.704 181.248 266.24 250.88 0.512 3.584 0.512 41.472-12.8 62.464-13.824 22.016-60.416 92.16-60.416 157.184 0 100.352 69.12 181.76 169.472 181.76s169.472-81.408 169.472-181.76c0-65.536-53.76-138.752-60.416-157.184-8.192-19.968-12.8-57.344-13.312-62.464z"  horiz-adv-x="1024" />
      
      <glyph glyph-name="duqu" unicode="&#59299;" d="M204.8 671.744l278.528-278.528c12.8-12.8 35.328-12.8 48.128 0L819.2 671.744H204.8z m688.128-18.944l-320-307.2c-38.4-35.328-99.328-35.328-137.728 0L131.072 655.872c-3.072-6.144-3.072-9.728-3.072-15.872v-512c0-19.456 12.8-32.256 32.256-32.256h704c19.456 0 32.256 12.8 32.256 32.256V640c-0.512 3.072-0.512 9.728-3.584 12.8zM160.256 735.744h704c54.272 0 96.256-41.472 96.256-96.256v-512c0-54.272-41.472-96.256-96.256-96.256H160.256c-54.272 0-96.256 41.472-96.256 96.256V640c0 54.272 41.472 95.744 96.256 95.744z"  horiz-adv-x="1024" />
      
      <glyph glyph-name="paidanjindu-shibai" unicode="&#59312;" d="M510.464 829.44c-246.272 0-447.488-201.728-447.488-448.512s201.216-448.512 447.488-448.512c246.272 0 447.488 201.728 447.488 448.512S756.736 829.44 510.464 829.44z m144.384-792.064c-92.16-38.912-196.608-38.912-288.768 0-89.6 38.4-160.768 109.568-198.656 199.168-38.912 92.672-38.912 197.12 0 289.792C205.312 615.936 276.48 687.104 366.08 725.504c92.16 39.424 196.608 39.424 288.768 0 89.6-38.4 160.768-109.568 198.656-199.168 38.912-92.672 38.912-197.12 0-289.792-37.888-89.6-109.056-160.768-198.656-199.168zM716.8 586.24c-17.92 17.92-35.328 17.92-53.248 0L512 434.688 364.032 582.656c-17.92 17.92-35.328 17.92-53.248 0s-17.92-35.328 0-53.248l147.968-147.968-144.896-144.896c-17.92-17.92-17.92-35.328 0-53.248s35.328-17.92 53.248 0l144.896 144.896 147.968-147.968c17.92-17.92 35.328-17.92 53.248 0s17.92 35.328 0 53.248l-147.968 147.968L716.8 532.992c17.408 17.408 17.408 35.328 0 53.248z"  horiz-adv-x="1024" />
      
      <glyph glyph-name="weixiurenyuanqiandao" unicode="&#59317;" d="M684.544 526.848c-78.848 95.232-220.16 108.544-315.392 29.696s-108.544-220.16-29.696-315.392 220.16-108.544 315.392-29.696c51.2 42.496 80.896 105.984 80.896 172.544 0 17.92 14.336 32.256 32.256 32.256s32.256-14.336 32.256-32.256c0-159.232-129.024-287.744-288.256-287.744-159.232 0-287.744 129.024-287.744 288.256S352.768 672.256 512 672.256c83.968 0 163.328-36.352 218.112-99.84l15.36 15.36c12.8 12.288 32.768 12.288 45.056-0.512 12.288-12.8 12.288-32.768-0.512-45.056l-269.312-265.216c-12.288-12.288-32.768-12.288-45.056 0L358.912 393.216c-12.288 12.8-11.776 32.768 1.024 45.056 12.288 11.776 32.256 11.776 44.544 0l94.72-94.72c-0.512 0.512 185.344 183.296 185.344 183.296z"  horiz-adv-x="1024" />
      
      <glyph glyph-name="fujian-shanchu1" unicode="&#59318;" d="M512 384m-509.44 0a509.44 509.44 0 1 1 1018.88 0 509.44 509.44 0 1 1-1018.88 0ZM256 640c-15.36-15.36-15.36-56.32 0-74.24l194.56-186.88-186.88-186.88c-15.36-15.36-15.36-48.64 0-64 15.36-15.36 48.64-15.36 64 0l186.88 186.88 186.88-186.88c15.36-15.36 48.64-15.36 64 0 15.36 15.36 15.36 48.64 0 64l-186.88 186.88 186.88 186.88c15.36 15.36 15.36 48.64 0 64-15.36 15.36-48.64 15.36-64 0l-186.88-186.88-186.88 197.12c-15.36 17.92-56.32 17.92-71.68 0z"  horiz-adv-x="1024" />
      
      <glyph glyph-name="paidan-nan" unicode="&#59319;" d="M8880.8 42.666667c34.133333 27.333333 40.933333 81.866667 204.8 109.2C9249.466667 179.2 9229.066667 261.066667 9235.866667 261.066667c0 34.133333-6.8 34.133333-6.8 34.133333s-81.866667 27.333333-102.4 102.4c-54.666667 20.533333-47.733333 34.133333-54.666667 61.466667 0 0-13.6 109.2 20.533333 109.2 0 0 20.533333 0 20.533334 27.333333v150.133333c0 27.333333 20.533333 102.4 81.866666 116 61.466667 13.6 34.133333 6.8 54.666667 6.8 20.533333 0 13.6 13.6 47.733333 13.6L9379.2 896c34.133333 0 61.466667-61.466667 81.866667-61.466667 20.533333 0 27.333333 6.8 68.266666 0 61.466667-13.6 47.733333-88.8 54.666667-122.933333 0-27.333333 6.8-102.4 0-129.733333s13.6-20.533333 13.6-20.533334c40.933333 0 27.333333-109.2 27.333333-109.2-6.8-27.333333-27.333333-34.133333-61.466666-54.666666-27.2-68.133333-102.4-122.666667-102.4-122.666667v-27.333333c0-6.8-6.8-81.866667 129.733333-102.4 163.866667-27.333333 191.2-75.066667 225.333333-109.2C9836.533333 8.533333 9857.066667-128 9857.066667-128h-1024s20.533333 136.533333 47.733333 170.666667z m0 0"  horiz-adv-x="19660" />
      
      <glyph glyph-name="gongdangaikuang" unicode="&#59320;" d="M783.872 821.76H240.64c-42.496 0-77.312-34.816-77.312-77.312V56.32c0-42.496 34.816-77.312 77.312-77.312h248.32c2.56 0 5.12 0.512 7.68 1.024h287.744c42.496 0 77.312 34.816 77.312 77.312V744.448c-0.512 42.496-34.816 77.312-77.824 77.312z m19.456-764.416c0-10.24-9.216-19.456-19.456-19.456H464.384c-2.56 0-5.12-0.512-7.68-1.024H240.64c-10.24 0-19.456 9.216-19.456 19.456V743.424c0 10.24 9.216 19.456 19.456 19.456h543.232c10.24 0 19.456-9.216 19.456-19.456v-686.08zM689.664 610.816H334.848c-15.872 0-29.184-13.312-29.184-29.184s13.312-29.184 29.184-29.184h354.304c15.872 0 29.184 13.312 29.184 29.184s-12.8 29.184-28.672 29.184zM689.664 429.568H337.408c-15.872 0-29.184-13.312-29.184-29.184s13.312-29.184 29.184-29.184h351.744c15.872 0 29.184 13.312 29.184 29.184s-12.8 29.184-28.672 29.184zM688.64 248.32H336.384c-15.872 0-29.184-13.312-29.184-29.184s13.312-29.184 29.184-29.184h351.744c15.872 0 29.184 13.312 29.184 29.184s-12.8 29.184-28.672 29.184z"  horiz-adv-x="1024" />
      
      <glyph glyph-name="paidan-nv" unicode="&#59321;" d="M526.15381 889.080042c36.598889-10.918156 69.19958-35.214897 87.19147-59.511638l3.690644-5.228413 1.845322-3.075537h1.537769c51.515243-1.845322 93.496321-26.29584 128.249887-76.119537l5.228413-7.688843 4.305751-6.766181c19.375882-33.677129 26.603394-77.811083 24.911849-131.479201-1.076438-32.600691-5.38219-65.970266-12.455924-106.106022-0.615107-3.844421-3.536867-18.606998-6.151074-32.60069l-0.922661-4.613306-4.151975-22.758973c-9.072834-59.357862 0.922661-92.727437 33.677129-133.016969 3.075537-3.844421 6.458627-7.842619 10.610602-12.455924l4.305751-4.920859 16.454123-18.606998c1.845322-2.152876 2.767983-4.920859 2.614206-7.842619 0-2.767983-1.230215-5.535966-3.075537-7.535066-53.821895-52.899234-123.790359-59.972969-207.444962-36.752665 0.461331-15.223907 1.076438-29.832708 2.46043-42.288632 44.441508-119.484607 332.157982-61.356961 362.605797-297.711969H42.218084c36.291335 232.510587 317.395405 178.381138 361.683135 296.481754 1.230215 13.224809 1.999099 28.141162 2.46043 43.672624-86.73014-22.605196-153.776843-10.610602-200.525004 36.906442-1.845322 1.999099-2.92176 4.767082-3.075537 7.535065-0.153777 2.767983 0.922661 5.535966 2.614206 7.688842 20.144766 23.37408 37.675327 58.281424 52.13035 104.414477 1.537768 6.304851 2.460429 7.073735 0 25.83451l-0.615107 4.613305-10.610602 72.275116c-10.303049 73.044001-12.148371 128.249887-2.306653 185.301097 11.840817 69.353356 41.212194 128.864995 92.266106 177.150923C402.209674 891.079141 467.103502 906.764379 526.15381 889.080042"  horiz-adv-x="1024" />
      
      <glyph glyph-name="xiala-bianji" unicode="&#59322;" d="M570.88 506.88c5.12-5.12 12.8-10.24 7.68-17.92-2.56-10.24-10.24-10.24-17.92-10.24h-79.36c-25.6 0-38.4-12.8-38.4-38.4v-174.08c0-25.6 12.8-38.4 38.4-38.4h174.08c23.04 0 35.84 12.8 35.84 35.84v81.92c0 7.68 2.56 15.36 10.24 17.92 7.68 2.56 12.8-2.56 17.92-7.68v-97.28c-5.12-33.28-25.6-51.2-58.88-56.32h-184.32c-33.28 5.12-53.76 23.04-58.88 56.32v189.44c5.12 33.28 25.6 51.2 58.88 56.32 30.72 2.56 64 2.56 94.72 2.56zM719.36 453.12c-2.56-7.68-10.24-12.8-15.36-17.92l-102.4-102.4c-12.8-15.36-28.16-20.48-46.08-20.48-35.84-2.56-35.84-2.56-33.28 33.28 2.56 20.48 10.24 35.84 25.6 48.64l99.84 99.84c5.12 5.12 12.8 10.24 17.92 15.36h5.12c20.48-12.8 35.84-30.72 48.64-48.64v-7.68z m-158.72-117.76c7.68 0 12.8 2.56 15.36 7.68l99.84 99.84c7.68 7.68 7.68 12.8 0 20.48-7.68 7.68-12.8 7.68-20.48 0l-99.84-99.84c-2.56-2.56-5.12-5.12-7.68-10.24-2.56-10.24 2.56-17.92 12.8-17.92z"  horiz-adv-x="1024" />
      
      <glyph glyph-name="xiala-daochu" unicode="&#59323;" d="M286.72 249.856L492.032 107.52c0.512 0 0.512-0.512 1.024-0.512 12.288-8.704 28.672-9.216 41.472 0l203.264 142.336c16.384 11.264 19.968 33.792 8.704 50.176-11.264 16.384-33.792 20.48-50.176 8.704l-148.48-103.936V710.144c0 19.968-15.872 35.84-35.84 35.84s-35.84-15.872-35.84-35.84v-504.832l-148.992 103.424c-16.384 11.264-38.912 7.68-50.176-8.704s-6.656-38.912 9.728-50.176zM924.16 256c-19.968 0-35.84-15.872-35.84-35.84v-189.44c0-12.8-6.656-22.528-14.848-22.528h-721.92c-8.192 0-14.848 10.24-14.848 22.528v189.44c0 19.968-15.872 35.84-35.84 35.84s-35.84-15.872-35.84-35.84v-197.12c0-48.128 38.912-87.04 87.04-87.04h721.92c48.128 0 87.04 38.912 87.04 87.04V220.16c-1.024 19.968-16.896 35.84-36.864 35.84z"  horiz-adv-x="1024" />
      
      <glyph glyph-name="xiala-chakan" unicode="&#59324;" d="M701.44 76.8c-168.96 0-307.2 138.24-307.2 307.2S532.48 691.2 701.44 691.2s307.2-138.24 307.2-307.2-138.24-307.2-307.2-307.2z m0 87.04c120.32 0 220.16 97.28 220.16 220.16 0 120.32-97.28 220.16-220.16 220.16s-220.16-97.28-220.16-220.16c0-120.32 99.84-220.16 220.16-220.16z m0 0M701.44-97.28c-258.56 0-488.96 153.6-693.76 458.24-10.24 15.36-10.24 33.28 0 48.64C212.48 711.68 442.88 865.28 701.44 865.28c258.56 0 488.96-153.6 693.76-458.24 10.24-15.36 10.24-33.28 0-48.64-204.8-302.08-435.2-455.68-693.76-455.68z m0 87.04c220.16 0 419.84 130.56 604.16 394.24C1121.28 647.68 921.6 778.24 701.44 778.24S281.6 647.68 97.28 384C281.6 120.32 483.84-10.24 701.44-10.24z m0 0"  horiz-adv-x="1402" />
      
      <glyph glyph-name="tianjiafujian" unicode="&#59325;" d="M531.456 714.752c9.728-33.28 40.96-55.808 75.264-55.296h320.512c0 43.52-35.328 78.848-78.848 78.848h-324.096l7.168-23.552z m-31.744 102.4h348.672c87.04 0 157.696-70.144 157.696-157.184v-31.744c39.424-29.696 62.976-76.288 63.488-125.44v-473.088c0-87.04-70.656-157.696-157.696-157.184H157.696C70.656-128 0-57.344 0 29.696V738.816C0 825.856 70.656 896 157.696 896h203.776c56.832-0.512 109.056-30.72 138.24-78.848z m-139.264 0H156.672c-43.52 0-78.848-35.328-78.848-78.848v-709.12c0-43.52 35.328-78.848 78.848-78.848h752.128c43.52 0 78.848 35.328 78.848 78.848V502.272c0 43.52-35.328 78.848-78.848 78.848H609.28c-69.12 0-130.048 44.544-151.04 110.08l-23.552 70.656c-8.192 33.792-39.424 56.832-74.24 55.296zM237.056 146.944h316.928c22.016 0 39.936-17.92 39.936-39.936s-17.92-39.936-39.936-39.936H237.056c-22.016 0-39.936 17.92-39.936 39.936s17.408 39.936 39.424 39.936h0.512z"  horiz-adv-x="1070" />
      
      <glyph glyph-name="paidan-shanchu" unicode="&#59326;" d="M8925.542857 676.571429h256c22 0 36.571429-14.571429 36.571429-36.571429 0-22-14.571429-36.571429-36.571429-36.571429h-109.714286v-658.285714c0-43.857143-29.285714-73.142857-73.142857-73.142857h-585.142857c-43.857143 0-73.142857 29.285714-73.142857 73.142857v658.285714h-109.714286c-22 0-36.571429 14.571429-36.571428 36.571429 0 22 14.571429 36.571429 36.571428 36.571429h256v146.285714c0 43.857143 29.285714 73.142857 73.142857 73.142857h292.571429c43.857143 0 73.142857-29.285714 73.142857-73.142857v-146.285714z m-438.857143-73.142858h-73.142857v-658.285714h585.142857v658.285714h-512z m73.142857 73.142858h292.571429v146.285714H8559.828571v-146.285714z m0-182.857143C8559.828571 515.714286 8574.4 530.285714 8596.4 530.285714c22 0 36.571429-14.571429 36.571429-36.571428v-446.142857c0-14.571429-14.571429-29.285714-36.571429-29.285715-22 0-36.571429 14.571429-36.571429 36.571429V493.714286z m219.428572 0C8779.257143 515.714286 8793.828571 530.285714 8815.828571 530.285714c22 0 36.571429-14.571429 36.571429-36.571428v-446.142857c0-22-14.571429-36.571429-36.571429-36.571429-22 0-36.571429 22-36.571428 43.857143V493.714286z m0 0M8925.542857 676.571429h256c22 0 36.571429-14.571429 36.571429-36.571429 0-22-14.571429-36.571429-36.571429-36.571429h-109.714286v-658.285714c0-43.857143-29.285714-73.142857-73.142857-73.142857h-585.142857c-43.857143 0-73.142857 29.285714-73.142857 73.142857v658.285714h-109.714286c-22 0-36.571429 14.571429-36.571428 36.571429 0 22 14.571429 36.571429 36.571428 36.571429h256v146.285714c0 43.857143 29.285714 73.142857 73.142857 73.142857h292.571429c43.857143 0 73.142857-29.285714 73.142857-73.142857v-146.285714z m-438.857143-73.142858h-73.142857v-658.285714h585.142857v658.285714h-512z m73.142857 73.142858h292.571429v146.285714H8559.828571v-146.285714z m0-182.857143C8559.828571 515.714286 8574.4 530.285714 8596.4 530.285714c22 0 36.571429-14.571429 36.571429-36.571428v-446.142857c0-14.571429-14.571429-29.285714-36.571429-29.285715-22 0-36.571429 14.571429-36.571429 36.571429V493.714286z m219.428572 0C8779.257143 515.714286 8793.828571 530.285714 8815.828571 530.285714c22 0 36.571429-14.571429 36.571429-36.571428v-446.142857c0-22-14.571429-36.571429-36.571429-36.571429-22 0-36.571429 22-36.571428 43.857143V493.714286z m0 0"  horiz-adv-x="18350" />
      
      <glyph glyph-name="xiala-shanchu" unicode="&#59327;" d="M248.32 481.28v23.04c10.24 10.24 20.48 10.24 33.28 10.24h471.04c12.8 0 25.6 0 33.28-10.24v-23.04c-12.8-10.24-25.6-10.24-40.96-10.24-20.48 0-25.6-7.68-28.16-25.6-5.12-94.72-10.24-192-17.92-286.72-2.56-56.32-20.48-79.36-74.24-97.28H409.6c-51.2 15.36-76.8 40.96-79.36 87.04-2.56 33.28-2.56 64-5.12 97.28-5.12 66.56-7.68 135.68-12.8 202.24 0 17.92-7.68 23.04-25.6 23.04-10.24 0-28.16-2.56-38.4 10.24z m268.8-10.24h-130.56c-28.16 0-30.72-2.56-28.16-30.72 0-30.72 2.56-64 5.12-94.72 5.12-64 7.68-130.56 12.8-194.56 2.56-33.28 20.48-46.08 53.76-46.08h176.64c35.84 0 53.76 17.92 56.32 51.2 5.12 97.28 10.24 192 15.36 289.28 0 20.48-7.68 28.16-25.6 25.6h-135.68zM593.92 581.12c7.68-7.68 12.8-17.92 7.68-28.16-5.12-12.8-15.36-12.8-28.16-12.8h-117.76c-10.24 0-23.04 2.56-28.16 12.8-5.12 10.24 0 20.48 7.68 28.16h158.72zM491.52 294.4v-69.12c0-12.8-2.56-23.04-17.92-23.04s-20.48 10.24-20.48 23.04v135.68c0 12.8 5.12 25.6 20.48 23.04 15.36 0 17.92-10.24 17.92-23.04v-66.56zM581.12 291.84v-69.12c0-12.8-5.12-23.04-20.48-23.04-15.36 0-20.48 10.24-20.48 23.04v138.24c0 12.8 5.12 23.04 20.48 23.04 15.36 0 20.48-10.24 20.48-25.6v-66.56z"  horiz-adv-x="1024" />
      
      <glyph glyph-name="tupianfangda" unicode="&#59328;" d="M917.333333 207.54963c-187.733333 0-333.748148 187.733333-339.721481 194.275555-6.542222 8.438519-6.542222 20.29037 0 28.823704 6.257778 7.86963 152.367407 194.275556 339.721481 194.275555 187.354074 0 333.748148-187.733333 339.721482-194.275555 6.542222-8.438519 6.542222-20.29037 0-28.823704-6.257778-7.774815-152.367407-194.275556-339.721482-194.275555zM626.725926 416.237037c36.882963-41.908148 154.548148-161.754074 290.607407-161.754074S1171.057778 374.328889 1207.940741 416.237037c-36.882963 41.908148-154.548148 161.754074-290.607408 161.754074S663.608889 458.42963 626.725926 416.237037z m290.607407-117.285926c-47.407407 0-90.263704 28.539259-108.373333 72.438519-18.204444 43.804444-8.154074 94.245926 25.41037 127.81037 33.564444 33.564444 84.005926 43.614815 127.810371 25.41037 43.804444-18.204444 72.438519-60.965926 72.438518-108.373333-0.18963-64.663704-52.622222-117.001481-117.285926-117.001481v-0.284445z m0 187.638519c-28.444444 0-54.139259-17.161481-65.042963-43.425186-10.903704-26.263704-4.835556-56.604444 15.265186-76.705185 20.100741-20.100741 50.441481-26.168889 76.705185-15.265185 26.263704 10.903704 43.425185 36.598519 43.425185 65.042963 0 38.874074-31.478519 70.352593-70.352593 70.352593z m0 0"  horiz-adv-x="1820" />
      
      </font>
</defs>
</svg>
